<svg width="783" height="200" viewBox="0 0 783 200" fill="none" xmlns="http://www.w3.org/2000/svg">
<path d="M89.042 124.052L96.4852 62.164C96.8528 59.5911 97.2663 56.8803 97.7257 54.0317C98.1852 51.1831 98.7824 48.2426 99.5176 45.2102L37.9049 124.052H89.042ZM141.42 124.052L138.801 144.866C138.617 146.795 137.79 148.495 136.32 149.966C134.85 151.344 132.966 152.033 130.669 152.033H117.574L111.647 200H79.807L85.5961 152.033H10.1999C7.9026 152.033 5.92695 151.298 4.27292 149.828C2.61888 148.357 1.69998 146.52 1.5162 144.314L0 125.844L101.447 0H136.182L121.02 124.052H141.42Z" fill="#56BD39"/>
<path d="M719.771 120.932L700.098 65.2966C698.929 62.3728 697.675 58.9478 696.339 55.0216C695.086 51.0953 693.875 46.835 692.705 42.2404C691.535 46.9185 690.282 51.2624 688.946 55.2722C687.693 59.1984 686.482 62.6235 685.312 65.5472L665.764 120.932H719.771ZM782.925 189.976H753.729C750.471 189.976 747.798 189.224 745.709 187.72C743.704 186.133 742.201 184.128 741.198 181.705L728.918 146.996H656.492L644.212 181.705C643.376 183.794 641.915 185.715 639.826 187.469C637.738 189.14 635.106 189.976 631.932 189.976H602.485L673.533 8.15735H712.002L782.925 189.976Z" fill="#56BD39"/>
<path d="M659.235 8.15735L586.056 189.976H551.973L478.795 8.15735H509.119C512.377 8.15735 515.008 8.95095 517.013 10.5382C519.101 12.0418 520.647 14.0049 521.649 16.4275L560.995 121.183C562.499 125.109 563.961 129.411 565.381 134.089C566.885 138.684 568.263 143.529 569.516 148.625C570.602 143.529 571.772 138.684 573.025 134.089C574.361 129.411 575.781 125.109 577.285 121.183L616.38 16.4275C617.216 14.3391 618.678 12.4595 620.766 10.7888C622.938 9.03449 625.611 8.15735 628.786 8.15735H659.235Z" fill="#56BD39"/>
<path d="M470.245 161.255C472.075 161.255 473.654 161.03 474.982 160.579C476.31 160.103 477.4 159.464 478.252 158.662C479.104 157.835 479.731 156.87 480.132 155.767C480.533 154.664 480.733 153.462 480.733 152.158C480.733 149.577 479.869 147.572 478.14 146.144C476.435 144.715 473.829 144.001 470.321 144.001H464.456V161.255H470.245ZM496.672 189.976H486.485C484.58 189.976 483.202 189.249 482.35 187.795L471.975 171.067C471.548 170.415 471.072 169.939 470.546 169.638C470.045 169.338 469.293 169.187 468.291 169.187H464.456V189.976H453.179V135.43H470.321C474.13 135.43 477.388 135.831 480.094 136.633C482.801 137.41 485.019 138.5 486.748 139.903C488.477 141.307 489.743 142.986 490.545 144.941C491.347 146.87 491.748 149.001 491.748 151.331C491.748 153.136 491.485 154.852 490.958 156.481C490.457 158.085 489.718 159.551 488.74 160.88C487.763 162.208 486.56 163.386 485.132 164.413C483.703 165.441 482.074 166.268 480.245 166.894C480.971 167.295 481.648 167.784 482.275 168.36C482.901 168.912 483.465 169.576 483.966 170.353L496.672 189.976Z" fill="white"/>
<path d="M430.765 180.954C432.595 180.954 434.236 180.653 435.69 180.051C437.143 179.425 438.371 178.548 439.374 177.42C440.376 176.292 441.141 174.926 441.667 173.322C442.193 171.719 442.456 169.914 442.456 167.909V135.43H453.734V167.909C453.734 171.217 453.195 174.262 452.117 177.044C451.065 179.801 449.549 182.182 447.569 184.186C445.589 186.191 443.183 187.758 440.351 188.885C437.519 190.013 434.324 190.577 430.765 190.577C427.207 190.577 423.999 190.013 421.142 188.885C418.31 187.758 415.904 186.191 413.924 184.186C411.944 182.182 410.416 179.801 409.338 177.044C408.286 174.262 407.759 171.217 407.759 167.909V135.43H419.037V167.909C419.037 169.914 419.3 171.719 419.826 173.322C420.352 174.926 421.117 176.292 422.119 177.42C423.122 178.548 424.35 179.425 425.803 180.051C427.257 180.653 428.911 180.954 430.765 180.954Z" fill="white"/>
<path d="M411.477 162.684C411.477 166.669 410.801 170.365 409.447 173.774C408.119 177.182 406.227 180.127 403.771 182.608C401.34 185.089 398.408 187.043 394.975 188.472C391.541 189.875 387.732 190.577 383.547 190.577C379.362 190.577 375.552 189.875 372.119 188.472C368.686 187.043 365.741 185.089 363.285 182.608C360.829 180.127 358.924 177.182 357.571 173.774C356.243 170.365 355.579 166.669 355.579 162.684C355.579 158.699 356.243 155.015 357.571 151.632C358.924 148.224 360.829 145.279 363.285 142.798C365.741 140.317 368.686 138.375 372.119 136.971C375.552 135.543 379.362 134.829 383.547 134.829C387.732 134.829 391.541 135.543 394.975 136.971C398.408 138.375 401.34 140.33 403.771 142.836C406.227 145.317 408.119 148.261 409.447 151.67C410.801 155.053 411.477 158.724 411.477 162.684ZM399.937 162.684C399.937 159.827 399.561 157.271 398.809 155.015C398.057 152.735 396.967 150.805 395.539 149.226C394.135 147.622 392.418 146.407 390.388 145.58C388.384 144.728 386.103 144.302 383.547 144.302C380.991 144.302 378.697 144.728 376.668 145.58C374.638 146.407 372.908 147.622 371.48 149.226C370.076 150.805 368.999 152.735 368.247 155.015C367.495 157.271 367.119 159.827 367.119 162.684C367.119 165.566 367.495 168.147 368.247 170.428C368.999 172.683 370.076 174.601 371.48 176.179C372.908 177.758 374.638 178.974 376.668 179.826C378.697 180.653 380.991 181.066 383.547 181.066C386.103 181.066 388.384 180.653 390.388 179.826C392.418 178.974 394.135 177.758 395.539 176.179C396.967 174.601 398.057 172.683 398.809 170.428C399.561 168.147 399.937 165.566 399.937 162.684Z" fill="white"/>
<path d="M348.529 168.999V189.976H337.252V168.999L317.441 135.43H327.365C328.343 135.43 329.12 135.668 329.696 136.144C330.297 136.595 330.774 137.184 331.125 137.911L340.071 155.09C340.673 156.243 341.212 157.321 341.688 158.323C342.189 159.326 342.628 160.328 343.003 161.331C343.354 160.328 343.755 159.326 344.206 158.323C344.683 157.296 345.209 156.218 345.785 155.09L354.657 137.911C354.958 137.31 355.409 136.746 356.01 136.219C356.612 135.693 357.389 135.43 358.341 135.43H368.34L348.529 168.999Z" fill="white"/>
<path d="M326.86 130.873L326.442 134.382H307.395L300.587 189.976H296.452L303.26 134.382H284.13L284.548 130.873H326.86Z" fill="white"/>
<path d="M290.526 134.298H262.081L259.116 158.357H282.798L282.339 161.698H258.698L255.649 186.551H284.219L283.759 189.976H251.054L258.322 130.873H290.985L290.526 134.298Z" fill="white"/>
<path d="M257.617 134.298H229.172L226.207 158.357H249.89L249.43 161.698H225.789L222.74 186.551H251.31L250.85 189.976H218.146L225.413 130.873H258.076L257.617 134.298Z" fill="white"/>
<path d="M189.249 173.268C189.36 173.574 189.458 173.895 189.541 174.229C189.653 174.535 189.736 174.855 189.792 175.19C190.07 174.577 190.404 173.936 190.794 173.268L217.443 131.667C217.665 131.305 217.888 131.082 218.111 130.998C218.361 130.915 218.682 130.873 219.071 130.873H221.954L214.686 189.976H211.052L217.275 139.477C217.331 139.171 217.387 138.837 217.443 138.475C217.498 138.085 217.568 137.695 217.651 137.306L191.337 178.615C190.892 179.311 190.321 179.659 189.625 179.659H188.956C188.232 179.659 187.745 179.311 187.495 178.615L170.704 137.18C170.704 138.016 170.662 138.767 170.578 139.436L164.397 189.976H160.763L168.03 130.873H170.871C171.261 130.873 171.567 130.915 171.79 130.998C172.04 131.054 172.235 131.277 172.374 131.667L189.249 173.268Z" fill="white"/>
<path d="M489.28 68.0951C489.28 73.1908 488.487 77.8689 486.9 82.1293C485.34 86.3896 483.154 90.0653 480.342 93.1561C477.557 96.2192 474.244 98.6139 470.401 100.34C466.586 102.039 462.423 102.888 457.912 102.888C454.237 102.888 450.923 102.234 447.971 100.925C445.048 99.6163 442.541 97.8064 440.453 95.4952C438.392 93.1561 436.805 90.3855 435.691 87.1832C434.606 83.981 434.062 80.4724 434.062 76.6576C434.062 71.5618 434.856 66.8838 436.443 62.6234C438.031 58.3351 440.23 54.6456 443.043 51.5547C445.855 48.4639 449.169 46.0552 452.984 44.3288C456.826 42.6024 460.989 41.7391 465.472 41.7391C469.148 41.7391 472.448 42.4074 475.372 43.744C478.323 45.0528 480.829 46.8767 482.89 49.2157C484.95 51.5547 486.524 54.3393 487.61 57.5694C488.724 60.7716 489.28 64.2802 489.28 68.0951ZM481.261 68.2621C481.261 65.2269 480.871 62.4841 480.091 60.0337C479.312 57.5555 478.198 55.4531 476.75 53.7267C475.33 52.0003 473.575 50.6637 471.487 49.7169C469.426 48.7702 467.101 48.2968 464.512 48.2968C461.226 48.2968 458.205 48.9651 455.448 50.3017C452.719 51.6104 450.352 53.49 448.347 55.9404C446.37 58.3908 444.825 61.3564 443.711 64.8371C442.625 68.29 442.082 72.1605 442.082 76.4487C442.082 79.4839 442.458 82.2267 443.21 84.6771C443.989 87.1276 445.103 89.216 446.551 90.9424C447.999 92.6688 449.754 94.0054 451.814 94.9522C453.875 95.8711 456.2 96.3305 458.789 96.3305C462.103 96.3305 465.138 95.6762 467.895 94.3674C470.652 93.0587 473.019 91.193 474.996 88.7704C476.973 86.32 478.504 83.3684 479.59 79.9155C480.704 76.4348 481.261 72.5504 481.261 68.2621Z" fill="white"/>
<path d="M446.72 48.9651H429.094L422.494 102.262H414.725L421.241 48.9651H403.531L404.283 42.4075H447.513L446.72 48.9651Z" fill="white"/>
<path d="M396.864 38.5689C396.357 39.4015 395.832 40.0169 395.289 40.4151C394.783 40.7771 394.113 40.9581 393.28 40.9581C392.484 40.9581 391.615 40.6866 390.674 40.1436C389.769 39.5644 388.701 38.949 387.47 38.2974C386.239 37.6458 384.828 37.0485 383.235 36.5055C381.642 35.9263 379.778 35.6367 377.642 35.6367C373.877 35.6367 371.054 36.4874 369.171 38.1888C367.289 39.854 366.348 42.044 366.348 44.759C366.348 46.4966 366.855 47.9445 367.868 49.1029C368.918 50.2251 370.276 51.2025 371.941 52.0351C373.642 52.8676 375.561 53.6097 377.696 54.2613C379.832 54.9129 382.022 55.6369 384.267 56.4333C386.511 57.1935 388.701 58.0984 390.837 59.1482C392.973 60.198 394.873 61.5193 396.538 63.1121C398.24 64.7048 399.597 66.6596 400.611 68.9764C401.66 71.2569 402.185 74.0443 402.185 77.3384C402.185 80.9221 401.552 84.2887 400.285 87.438C399.054 90.5512 397.262 93.2842 394.909 95.6372C392.556 97.9539 389.642 99.782 386.167 101.121C382.728 102.461 378.819 103.13 374.438 103.13C371.941 103.13 369.443 102.877 366.945 102.37C364.484 101.863 362.095 101.158 359.778 100.253C357.497 99.3476 355.343 98.2616 353.316 96.9947C351.289 95.7277 349.515 94.3159 347.995 92.7593L352.773 85.0489C353.171 84.4697 353.696 83.9991 354.348 83.6371C354.999 83.2389 355.687 83.0398 356.411 83.0398C357.389 83.0398 358.42 83.4018 359.506 84.1258C360.592 84.8498 361.841 85.6462 363.253 86.5149C364.665 87.3837 366.294 88.1801 368.14 88.9041C370.022 89.6281 372.267 89.9901 374.873 89.9901C378.674 89.9901 381.606 89.1213 383.669 87.3837C385.769 85.6462 386.819 83.0579 386.819 79.619C386.819 77.628 386.294 76.0171 385.244 74.7863C384.23 73.5556 382.891 72.5239 381.226 71.6913C379.561 70.8587 377.66 70.1528 375.524 69.5736C373.389 68.9582 371.199 68.2886 368.954 67.5646C366.71 66.8406 364.52 65.9718 362.384 64.9582C360.248 63.9446 358.348 62.6053 356.683 60.9401C355.018 59.2749 353.66 57.2116 352.61 54.75C351.597 52.2885 351.09 49.2296 351.09 45.5735C351.09 42.6413 351.669 39.7997 352.827 37.0485C353.986 34.2974 355.687 31.8539 357.932 29.7182C360.176 27.5824 362.927 25.8629 366.185 24.5597C369.479 23.2566 373.244 22.605 377.479 22.605C382.221 22.605 386.601 23.3471 390.62 24.8312C394.674 26.2792 398.095 28.3064 400.882 30.9127L396.864 38.5689Z" fill="white"/>
<path d="M328.995 62.6778C334.099 62.6778 337.828 61.447 340.181 58.9854C342.57 56.5239 343.765 53.1573 343.765 48.8858C343.765 46.9311 343.457 45.1573 342.841 43.5645C342.262 41.9355 341.357 40.56 340.126 39.4378C338.932 38.2794 337.412 37.3925 335.565 36.7771C333.719 36.1617 331.529 35.8541 328.995 35.8541H318.678V62.6778H328.995ZM328.995 23.4739C334.389 23.4739 339.041 24.1074 342.95 25.3743C346.896 26.6413 350.136 28.4151 352.67 30.6956C355.204 32.94 357.068 35.6188 358.262 38.7319C359.493 41.845 360.109 45.2297 360.109 48.8858C360.109 52.7591 359.475 56.3067 358.208 59.5284C356.941 62.7502 355.023 65.5194 352.452 67.8362C349.882 70.1529 346.642 71.9629 342.733 73.2661C338.823 74.5331 334.244 75.1665 328.995 75.1665H318.678V102.262H302.389V23.4739H328.995Z" fill="white"/>
<path d="M272.718 36.2341V56.4877H298.998V68.8136H272.718V89.5015H306.492V102.262H256.319V23.4739H306.492V36.2341H272.718Z" fill="white"/>
<path d="M262.834 36.6142H239.811V102.262H223.467V36.6142H200.444V23.4739H262.834V36.6142Z" fill="white"/>
<path d="M206.224 38.5689C205.717 39.4015 205.192 40.0169 204.649 40.4151C204.142 40.7771 203.472 40.9581 202.64 40.9581C201.843 40.9581 200.975 40.6866 200.034 40.1436C199.129 39.5644 198.061 38.949 196.83 38.2974C195.599 37.6458 194.187 37.0485 192.595 36.5055C191.002 35.9263 189.138 35.6367 187.002 35.6367C183.237 35.6367 180.413 36.4874 178.531 38.1888C176.649 39.854 175.708 42.044 175.708 44.759C175.708 46.4966 176.214 47.9445 177.228 49.1029C178.278 50.2251 179.635 51.2025 181.3 52.0351C183.002 52.8676 184.92 53.6097 187.056 54.2613C189.192 54.9129 191.382 55.6369 193.626 56.4333C195.871 57.1935 198.061 58.0984 200.196 59.1482C202.332 60.198 204.233 61.5193 205.898 63.1121C207.599 64.7048 208.957 66.6596 209.97 68.9764C211.02 71.2569 211.545 74.0443 211.545 77.3384C211.545 80.9221 210.911 84.2887 209.644 87.438C208.414 90.5512 206.622 93.2842 204.269 95.6372C201.916 97.9539 199.002 99.782 195.527 101.121C192.088 102.461 188.178 103.13 183.798 103.13C181.3 103.13 178.803 102.877 176.305 102.37C173.843 101.863 171.454 101.158 169.137 100.253C166.857 99.3476 164.703 98.2616 162.676 96.9947C160.649 95.7277 158.875 94.3159 157.354 92.7593L162.133 85.0489C162.531 84.4697 163.056 83.9991 163.707 83.6371C164.359 83.2389 165.047 83.0398 165.771 83.0398C166.748 83.0398 167.78 83.4018 168.866 84.1258C169.952 84.8498 171.201 85.6462 172.613 86.5149C174.024 87.3837 175.653 88.1801 177.499 88.9041C179.382 89.6281 181.626 89.9901 184.233 89.9901C188.033 89.9901 190.966 89.1213 193.029 87.3837C195.129 85.6462 196.178 83.0579 196.178 79.619C196.178 77.628 195.653 76.0171 194.604 74.7863C193.59 73.5556 192.251 72.5239 190.585 71.6913C188.92 70.8587 187.02 70.1528 184.884 69.5736C182.748 68.9582 180.558 68.2886 178.314 67.5646C176.07 66.8406 173.879 65.9718 171.744 64.9582C169.608 63.9446 167.708 62.6053 166.042 60.9401C164.377 59.2749 163.02 57.2116 161.97 54.75C160.956 52.2885 160.45 49.2296 160.45 45.5735C160.45 42.6413 161.029 39.7997 162.187 37.0485C163.345 34.2974 165.047 31.8539 167.291 29.7182C169.536 27.5824 172.287 25.8629 175.545 24.5597C178.839 23.2566 182.604 22.605 186.839 22.605C191.581 22.605 195.961 23.3471 199.979 24.8312C204.034 26.2792 207.454 28.3064 210.242 30.9127L206.224 38.5689Z" fill="white"/>
</svg>
