<svg width="292" height="309" viewBox="0 0 292 309" fill="none" xmlns="http://www.w3.org/2000/svg">
<path d="M63.8805 308.6C63.8805 305 63.4805 303.4 61.8805 303.4L52.6805 307.8C52.6805 305.8 51.4805 304.6 49.4805 303.8L46.2805 303.4C43.4805 303.4 42.2805 303.8 38.2805 306.2C37.0805 303.8 35.4805 301 34.2805 298.6C23.8805 278.6 13.0805 248.6 8.28052 235.4C5.88052 228.6 3.48052 214.6 0.680519 193.4C3.88052 195.4 6.28052 196.2 7.48052 196.2C9.08052 196.2 11.0805 193.4 12.6805 187.8C13.4805 189 15.0805 189.4 17.0805 189.4C18.2805 189.4 19.8805 189 20.6805 187.8L27.0805 178.2L34.2805 180.6H34.6805C35.4805 180.6 36.6805 179.4 38.6805 178.2C40.6805 177 42.2805 176.2 43.4805 176.2L44.6805 176.6C51.0805 179.8 55.4805 185.4 57.4805 194.2C62.2805 214.6 66.6805 224.6 71.8805 224.6C76.2805 224.6 82.2805 219.4 88.6805 209.4C95.0805 199.4 101.481 185.8 108.681 169.4C109.081 172.6 109.481 174.2 110.281 174.2C112.681 174.2 118.681 160.2 133.481 136.6C155.481 101 209.881 32.6 223.881 23C234.281 15.8 242.281 8.99998 247.881 2.99999C247.081 6.99998 246.281 9.8 246.281 11C246.281 12.2 247.081 12.6 247.881 12.6L259.081 6.99998V8.59999C259.081 10.6 259.481 11.8 260.681 11.8C262.281 11.8 268.681 5.39998 269.481 2.99999L268.681 8.59999L282.281 0.599996L279.081 7.8C283.081 4.99999 286.281 3.39998 288.281 3.39998C290.281 3.39998 291.481 6.59999 291.481 8.59999C291.481 11.8 288.681 16.2 284.281 21.8C279.481 28.2 267.481 40.6 231.481 81.8C215.881 99.4 146.681 193.4 133.481 215.8L108.681 257.8C97.8805 275.8 91.0805 287.4 87.4805 291.8C83.8805 296.2 79.4805 300.6 74.2805 304.6L70.6805 302.6L67.4805 304.6L63.8805 308.6Z" fill="#56BD39"/>
</svg>
