<svg width="800" height="800" viewBox="0 0 800 800" fill="#ffffff"
   xmlns="http://www.w3.org/2000/svg">
   <g clip-path="url(#clip0_274_4592)">
      <path
         d="M485.182 391.341L424.35 225.669C420.581 215.405 410.807 208.583 399.875 208.583C388.942 208.583 379.167 215.405 375.4 225.669L314.564 391.341C312.428 397.159 312.432 403.552 314.582 409.367L375.418 573.953C379.203 584.189 388.961 590.986 399.873 590.986C410.786 590.986 420.545 584.189 424.328 573.953L485.164 409.367C487.314 403.552 487.322 397.159 485.182 391.341ZM399.876 489.709L366.826 400.295L399.876 310.292L432.926 400.295L399.876 489.709Z"
         fill="black" />
      <path
         d="M744.176 196.536C777.446 178.986 799.659 144.119 799.659 104.291C799.659 46.7844 752.875 0 695.368 0C655.468 0 620.547 22.2891 603.026 55.6578C542.167 19.6578 472.564 0.434375 400 0.434375C179.04 0.434375 0.216797 179.241 0.216797 400.217C0.216797 621.177 179.023 800 400 800C620.959 800 799.782 621.195 799.782 400.217C799.782 327.394 780.426 257.55 744.176 196.536ZM695.368 52.1453C724.121 52.1453 747.514 75.5375 747.514 104.291C747.514 126.37 733.876 145.397 714.192 152.955C695.117 128.812 672.765 106.092 646.671 85.5531C654.207 65.8219 673.254 52.1453 695.368 52.1453ZM400 747.855C208.312 747.855 52.3621 591.905 52.3621 400.217C52.3621 208.53 208.312 52.5797 400 52.5797C591.687 52.5797 747.637 208.53 747.637 400.217C747.637 591.905 591.687 747.855 400 747.855Z"
         fill="black" />
      <path
         d="M399.877 104.291C237.168 104.291 104.385 236.675 104.385 399.783C104.385 562.528 236.807 695.275 399.877 695.275C562.943 695.275 695.369 562.536 695.369 399.783C695.369 237.5 563.349 104.291 399.877 104.291ZM589.261 552.403L571.257 534.398C561.075 524.217 544.566 524.216 534.385 534.398C524.204 544.581 524.204 561.087 534.385 571.27L552.377 589.262C510.624 622.936 457.568 643.128 399.877 643.128C342.186 643.128 289.13 622.936 247.375 589.264L265.368 571.272C275.55 561.089 275.55 544.583 265.368 534.4C255.186 524.217 238.679 524.217 228.496 534.4L210.491 552.405C176.761 510.633 156.53 457.53 156.53 399.783C156.53 342.092 176.722 289.036 210.394 247.281L228.496 265.383C238.677 275.566 255.186 275.567 265.368 265.383C275.55 255.2 275.55 238.694 265.368 228.511L247.254 210.397C289.025 176.669 342.127 156.436 399.875 156.436C457.621 156.436 510.725 176.669 552.497 210.398L534.385 228.511C524.202 238.694 524.202 255.2 534.385 265.383C544.568 275.564 561.072 275.566 571.257 265.383L589.358 247.281C623.029 289.036 643.222 342.091 643.222 399.781C643.222 457.528 622.991 510.63 589.261 552.403Z"
         fill="black" />
   </g>
   <defs>
      <clipPath id="clip0_274_4592">
         <rect width="800" height="800" fill="white" />
      </clipPath>
   </defs>
</svg>