<svg width="81" height="80" viewBox="0 0 81 80" fill="none" xmlns="http://www.w3.org/2000/svg">
<g clip-path="url(#clip0_274_4505)">
<path d="M74.2548 73.7629L72.5509 68.7534C69.3516 59.3304 60.688 52.9085 50.8176 52.4871C49.9489 53.1621 49.0331 53.7421 48.0839 54.2492C46.6688 57.9649 41.9144 58.9715 39.1288 56.1259C35.8334 55.8348 32.8163 54.533 30.1815 52.4873C20.3111 52.9073 11.6498 59.3292 8.44811 68.7536L6.74713 73.7629C6.2554 75.2038 6.49222 76.7917 7.37922 78.0286C8.26338 79.2665 9.69403 80 11.2156 80H69.7839C71.3052 80 72.736 79.2666 73.6203 78.0286C74.507 76.7917 74.7437 75.2038 74.2548 73.7629Z" fill="white"/>
<path d="M47.0198 48.6743C52.7498 44.6468 56.7575 35.7527 56.7575 27.154C56.7575 2.71678 24.2432 2.74274 24.2432 27.154C24.2432 37.6046 30.1604 48.4753 37.9009 50.5275C38.6472 48.4129 40.6446 46.8836 43.0117 46.8836C44.6035 46.8834 46.0236 47.5816 47.0198 48.6743Z" fill="white"/>
<path d="M17.1094 37.3562C17.9155 40.5226 22.3088 39.6514 22.3088 36.7189C22.3088 24.9651 22.8706 23.8676 21.297 22.5919C24.8991 0.395441 55.9286 0.561921 59.7052 22.5944C58.134 23.8741 58.6961 24.9665 58.6961 36.7189C58.6961 37.6382 59.1902 38.4097 59.9001 38.8882C59.9001 48.0318 56.1912 47.4972 45.0382 50.4533C43.3139 48.5818 40.2342 49.8003 40.2342 52.3246C40.2342 55.4861 44.7652 56.2259 45.6443 53.0478C54.6486 50.6602 62.5633 49.9072 62.5633 40.9079V39.061C63.2317 38.715 63.705 38.1015 63.895 37.3562C72.5744 37.1793 72.5771 24.1719 63.895 23.9951C63.7154 23.2849 63.2734 22.7049 62.6517 22.3512C62.8755 19.6879 62.3268 16.1869 60.7999 12.8071C50.1805 -9.10581 18.8154 -0.531925 18.3242 20.7048C18.2565 21.424 18.3111 21.9338 18.3527 22.3512C17.7309 22.7049 17.289 23.2849 17.1094 23.9951C13.4733 24.0652 10.542 27.0239 10.542 30.6757C10.542 34.3274 13.4733 37.2858 17.1094 37.3562Z" fill="white"/>
</g>
<defs>
<clipPath id="clip0_274_4505">
<rect width="80" height="80" fill="white" transform="translate(0.5)"/>
</clipPath>
</defs>
</svg>
