<svg width="832" height="481" viewBox="0 0 832 481" fill="none" xmlns="http://www.w3.org/2000/svg">
<path d="M480.5 319.5L481.369 319.995L480.5 319.5ZM630 179L630.99 179.139L630 179ZM831.177 1.7358C831.584 1.3618 831.61 0.729174 831.236 0.322802C830.862 -0.0835694 830.229 -0.109807 829.823 0.264199L831.177 1.7358ZM4.181 475.779C4.4319 475.287 4.23643 474.685 3.74443 474.434C3.25242 474.183 2.65018 474.378 2.39929 474.87L4.181 475.779ZM10.0212 461.584C9.7224 462.048 9.85673 462.667 10.3212 462.966C10.7857 463.265 11.4045 463.13 11.7032 462.666L10.0212 461.584ZM17.4886 454.339C17.8199 453.897 17.7302 453.27 17.2883 452.939C16.8464 452.608 16.2197 452.697 15.8884 453.139L17.4886 454.339ZM25.7767 441.371C25.3983 441.773 25.4176 442.406 25.8199 442.785C26.2221 443.163 26.855 443.144 27.2334 442.741L25.7767 441.371ZM34.4158 435.66C34.8234 435.287 34.8516 434.655 34.4789 434.247C34.1062 433.84 33.4737 433.811 33.0661 434.184L34.4158 435.66ZM44.9645 424.462C44.5183 424.787 44.4205 425.413 44.746 425.859C45.0714 426.305 45.697 426.403 46.1432 426.077L44.9645 424.462ZM54.5197 420.41C54.9876 420.117 55.1291 419.5 54.8358 419.032C54.5424 418.564 53.9252 418.422 53.4573 418.716L54.5197 420.41ZM66.8639 411.21C66.3696 411.456 66.1687 412.057 66.4151 412.551C66.6616 413.045 67.262 413.246 67.7563 413L66.8639 411.21ZM76.931 408.762C77.4389 408.545 77.6748 407.958 77.4578 407.45C77.2409 406.942 76.6533 406.706 76.1454 406.923L76.931 408.762ZM90.4912 401.468C89.9678 401.645 89.6865 402.212 89.8628 402.735C90.0391 403.259 90.6063 403.54 91.1297 403.364L90.4912 401.468ZM100.844 400.344C101.375 400.192 101.683 399.639 101.531 399.108C101.379 398.577 100.825 398.269 100.294 398.421L100.844 400.344ZM115.162 394.663C114.623 394.783 114.283 395.317 114.402 395.856C114.522 396.395 115.056 396.735 115.595 396.616L115.162 394.663ZM125.506 394.601C126.049 394.5 126.407 393.978 126.307 393.435C126.206 392.892 125.684 392.533 125.141 392.634L125.506 394.601ZM140.269 390.186C139.722 390.262 139.341 390.768 139.417 391.315C139.493 391.862 139.999 392.243 140.546 392.167L140.269 390.186ZM150.667 390.89C151.216 390.827 151.61 390.332 151.548 389.783C151.486 389.234 150.99 388.84 150.442 388.902L150.667 390.89ZM165.663 387.434C165.113 387.478 164.702 387.96 164.747 388.511C164.791 389.061 165.273 389.471 165.824 389.427L165.663 387.434ZM175.952 388.705C176.503 388.67 176.922 388.195 176.887 387.644C176.853 387.093 176.378 386.674 175.827 386.708L175.952 388.705ZM191.12 385.934C190.568 385.956 190.138 386.421 190.16 386.973C190.182 387.524 190.647 387.954 191.199 387.932L191.12 385.934ZM201.371 387.591C201.923 387.575 202.359 387.115 202.343 386.563C202.328 386.011 201.868 385.576 201.316 385.591L201.371 387.591ZM216.605 385.283C216.053 385.29 215.611 385.744 215.618 386.296C215.626 386.848 216.08 387.29 216.632 387.282L216.605 385.283ZM226.818 387.182C227.371 387.178 227.816 386.728 227.812 386.176C227.808 385.623 227.358 385.178 226.805 385.182L226.818 387.182ZM242.092 385.139C241.54 385.139 241.092 385.587 241.092 386.139C241.092 386.691 241.54 387.139 242.092 387.139L242.092 385.139ZM252.281 387.154C252.833 387.155 253.282 386.708 253.283 386.156C253.284 385.604 252.838 385.155 252.285 385.154L252.281 387.154ZM267.571 385.192C267.019 385.191 266.57 385.638 266.569 386.19C266.568 386.742 267.015 387.191 267.567 387.192L267.571 385.192ZM277.743 387.2C278.295 387.2 278.743 386.752 278.742 386.2C278.742 385.647 278.294 385.2 277.742 385.2L277.743 387.2ZM293.026 385.136C292.474 385.141 292.03 385.593 292.035 386.145C292.039 386.697 292.491 387.141 293.043 387.136L293.026 385.136ZM303.248 387.012C303.8 387.003 304.24 386.548 304.231 385.995C304.222 385.443 303.767 385.003 303.215 385.012L303.248 387.012ZM318.466 384.646C317.914 384.664 317.481 385.126 317.499 385.678C317.517 386.23 317.979 386.662 318.531 386.644L318.466 384.646ZM328.729 386.242C329.281 386.217 329.707 385.748 329.682 385.197C329.656 384.645 329.188 384.219 328.636 384.245L328.729 386.242ZM343.876 383.338C343.325 383.378 342.911 383.858 342.952 384.409C342.992 384.959 343.471 385.373 344.022 385.333L343.876 383.338ZM354.184 384.477C354.734 384.424 355.137 383.936 355.085 383.386C355.032 382.836 354.544 382.433 353.994 382.486L354.184 384.477ZM369.119 380.744C368.572 380.819 368.189 381.323 368.264 381.87C368.338 382.418 368.842 382.801 369.39 382.726L369.119 380.744ZM379.507 381.182C380.051 381.089 380.418 380.573 380.325 380.028C380.233 379.484 379.717 379.117 379.172 379.21L379.507 381.182ZM394.102 376.235C393.564 376.36 393.229 376.897 393.353 377.435C393.478 377.973 394.015 378.308 394.553 378.184L394.102 376.235ZM404.473 375.647C405.004 375.497 405.314 374.945 405.164 374.413C405.014 373.882 404.462 373.572 403.93 373.722L404.473 375.647ZM418.366 369.012C417.849 369.206 417.588 369.782 417.782 370.299C417.976 370.817 418.552 371.078 419.069 370.884L418.366 369.012ZM428.509 366.987C429.012 366.76 429.235 366.167 429.007 365.664C428.78 365.161 428.187 364.938 427.684 365.166L428.509 366.987ZM441.12 358.147C440.647 358.431 440.493 359.046 440.777 359.519C441.062 359.993 441.676 360.146 442.149 359.862L441.12 358.147ZM450.723 354.204C451.17 353.88 451.27 353.254 450.946 352.807C450.622 352.36 449.997 352.26 449.549 352.585L450.723 354.204ZM461.148 342.881C460.751 343.265 460.74 343.898 461.123 344.295C461.507 344.692 462.14 344.704 462.537 344.32L461.148 342.881ZM469.556 336.858C469.915 336.438 469.865 335.807 469.445 335.449C469.025 335.09 468.393 335.14 468.035 335.56L469.556 336.858ZM476.989 323.402C476.693 323.869 476.832 324.486 477.299 324.782C477.766 325.077 478.383 324.938 478.679 324.472L476.989 323.402ZM483.851 315.534C484.114 315.048 483.934 314.441 483.448 314.178C482.963 313.915 482.356 314.095 482.092 314.581L483.851 315.534ZM488.558 301.627C488.329 302.129 488.552 302.722 489.054 302.951C489.557 303.179 490.15 302.957 490.379 302.454L488.558 301.627ZM494.249 293.275C494.448 292.76 494.193 292.18 493.678 291.981C493.163 291.781 492.583 292.037 492.384 292.552L494.249 293.275ZM496.976 278.738C496.83 279.27 497.143 279.821 497.675 279.967C498.208 280.113 498.758 279.8 498.905 279.268L496.976 278.738ZM501.129 269.686C501.231 269.143 500.874 268.62 500.331 268.518C499.789 268.416 499.266 268.773 499.164 269.316L501.129 269.686ZM500.808 254.906C500.789 255.458 501.22 255.921 501.772 255.94C502.324 255.96 502.787 255.528 502.807 254.976L500.808 254.906ZM502.578 245.121C502.531 244.57 502.047 244.162 501.497 244.209C500.946 244.256 500.538 244.74 500.585 245.29L502.578 245.121ZM497.907 231.113C498.067 231.642 498.625 231.941 499.154 231.781C499.682 231.621 499.981 231.063 499.821 230.534L497.907 231.113ZM496.242 221.293C496.004 220.794 495.407 220.584 494.909 220.822C494.411 221.06 494.2 221.657 494.438 222.155L496.242 221.293ZM486.779 209.973C487.124 210.404 487.754 210.474 488.185 210.129C488.616 209.784 488.686 209.155 488.341 208.724L486.779 209.973ZM481.598 201.444C481.195 201.066 480.562 201.086 480.184 201.489C479.807 201.892 479.827 202.525 480.23 202.903L481.598 201.444ZM468.785 194.087C469.252 194.382 469.87 194.244 470.165 193.777C470.461 193.311 470.323 192.693 469.856 192.397L468.785 194.087ZM461.224 187.575C460.728 187.331 460.129 187.536 459.886 188.032C459.643 188.528 459.847 189.127 460.343 189.37L461.224 187.575ZM446.865 183.926C447.39 184.098 447.954 183.811 448.126 183.286C448.297 182.761 448.01 182.196 447.485 182.025L446.865 183.926ZM437.992 179.359C437.455 179.232 436.916 179.564 436.788 180.101C436.661 180.638 436.993 181.177 437.53 181.305L437.992 179.359ZM423.175 178.741C423.723 178.808 424.222 178.418 424.289 177.87C424.357 177.322 423.967 176.823 423.419 176.756L423.175 178.741ZM413.615 175.891C413.063 175.861 412.592 176.284 412.562 176.835C412.532 177.387 412.955 177.858 413.506 177.888L413.615 175.891ZM398.928 177.813C399.48 177.789 399.908 177.323 399.884 176.771C399.86 176.219 399.393 175.791 398.841 175.815L398.928 177.813ZM389.022 176.554C388.473 176.613 388.075 177.106 388.134 177.656C388.193 178.205 388.686 178.602 389.235 178.543L389.022 176.554ZM374.828 180.795C375.369 180.684 375.717 180.155 375.605 179.614C375.494 179.073 374.965 178.725 374.424 178.837L374.828 180.795ZM364.852 181.149C364.32 181.296 364.008 181.847 364.156 182.38C364.304 182.912 364.855 183.223 365.387 183.076L364.852 181.149ZM351.568 187.715C352.081 187.511 352.331 186.929 352.127 186.416C351.923 185.903 351.341 185.653 350.828 185.857L351.568 187.715ZM341.816 189.858C341.321 190.103 341.117 190.702 341.361 191.198C341.606 191.693 342.205 191.897 342.701 191.652L341.816 189.858ZM330.107 198.916C330.566 198.608 330.688 197.986 330.38 197.528C330.071 197.07 329.45 196.948 328.992 197.256L330.107 198.916ZM321.075 203.171C320.65 203.524 320.592 204.155 320.945 204.579C321.298 205.004 321.929 205.062 322.353 204.709L321.075 203.171ZM312.052 214.866C312.409 214.445 312.357 213.814 311.935 213.457C311.514 213.1 310.883 213.152 310.526 213.574L312.052 214.866ZM304.62 221.533C304.321 221.998 304.455 222.616 304.92 222.915C305.384 223.214 306.003 223.08 306.302 222.616L304.62 221.533ZM299.807 235.488C300.002 234.971 299.741 234.394 299.224 234.199C298.707 234.004 298.13 234.265 297.935 234.782L299.807 235.488ZM295.112 244.282C294.993 244.821 295.334 245.355 295.873 245.474C296.412 245.593 296.946 245.253 297.065 244.713L295.112 244.282ZM295.418 259.033C295.426 258.481 294.986 258.026 294.433 258.018C293.881 258.009 293.427 258.45 293.418 259.002L295.418 259.033ZM293.923 269.25C293.986 269.798 294.482 270.192 295.031 270.128C295.579 270.065 295.973 269.569 295.909 269.02L293.923 269.25ZM299.176 283.588C298.997 283.066 298.428 282.787 297.906 282.966C297.383 283.145 297.105 283.714 297.283 284.236L299.176 283.588ZM301.329 293.68C301.584 294.17 302.188 294.36 302.677 294.105C303.167 293.851 303.358 293.247 303.103 292.757L301.329 293.68ZM311.411 305.188C311.057 304.764 310.426 304.707 310.002 305.061C309.578 305.415 309.521 306.045 309.875 306.47L311.411 305.188ZM316.959 313.904C317.364 314.279 317.997 314.254 318.372 313.848C318.747 313.442 318.721 312.81 318.316 312.435L316.959 313.904ZM330.17 321.619C329.707 321.318 329.088 321.448 328.786 321.911C328.484 322.373 328.615 322.993 329.077 323.295L330.17 321.619ZM337.914 328.462C338.403 328.718 339.008 328.529 339.264 328.04C339.52 327.55 339.331 326.946 338.842 326.69L337.914 328.462ZM352.611 332.827C352.094 332.633 351.517 332.894 351.323 333.411C351.128 333.928 351.389 334.504 351.906 334.699L352.611 332.827ZM361.587 337.951C362.116 338.109 362.673 337.808 362.831 337.278C362.988 336.749 362.687 336.192 362.158 336.035L361.587 337.951ZM376.832 339.656C376.29 339.548 375.763 339.899 375.656 340.441C375.548 340.983 375.899 341.509 376.441 341.617L376.832 339.656ZM386.502 343.328C387.049 343.406 387.555 343.025 387.633 342.479C387.711 341.932 387.33 341.426 386.784 341.348L386.502 343.328ZM401.835 342.897C401.284 342.861 400.808 343.278 400.772 343.83C400.736 344.381 401.153 344.857 401.704 344.893L401.835 342.897ZM411.909 345.317C412.462 345.328 412.918 344.888 412.928 344.336C412.938 343.784 412.498 343.328 411.946 343.318L411.909 345.317ZM427.084 343.088C426.532 343.115 426.106 343.583 426.133 344.135C426.159 344.687 426.628 345.112 427.179 345.086L427.084 343.088ZM437.34 344.382C437.89 344.332 438.295 343.846 438.246 343.296C438.196 342.746 437.71 342.34 437.16 342.39L437.34 344.382ZM452.199 340.559C451.653 340.643 451.279 341.153 451.362 341.699C451.445 342.245 451.956 342.62 452.502 342.536L452.199 340.559ZM462.521 340.796C463.063 340.691 463.417 340.166 463.312 339.624C463.207 339.082 462.682 338.727 462.14 338.833L462.521 340.796ZM476.921 335.495C476.386 335.633 476.064 336.178 476.202 336.713C476.34 337.247 476.885 337.569 477.42 337.431L476.921 335.495ZM487.234 334.691C487.763 334.532 488.062 333.974 487.903 333.445C487.744 332.916 487.186 332.617 486.657 332.776L487.234 334.691ZM501.024 327.968C500.506 328.159 500.241 328.735 500.432 329.253C500.624 329.771 501.199 330.036 501.717 329.844L501.024 327.968ZM511.193 326.121C511.703 325.908 511.944 325.323 511.731 324.813C511.518 324.303 510.933 324.063 510.423 324.275L511.193 326.121ZM524.207 318C523.712 318.245 523.51 318.845 523.755 319.34C523.999 319.835 524.599 320.037 525.094 319.792L524.207 318ZM534.12 315.075C534.604 314.808 534.78 314.2 534.513 313.716C534.247 313.233 533.638 313.057 533.155 313.323L534.12 315.075ZM546.155 305.564C545.691 305.863 545.557 306.482 545.857 306.946C546.156 307.41 546.775 307.544 547.239 307.245L546.155 305.564ZM555.668 301.519C556.117 301.197 556.221 300.573 555.9 300.124C555.578 299.674 554.954 299.571 554.504 299.892L555.668 301.519ZM566.479 290.638C566.055 290.992 565.998 291.622 566.352 292.046C566.706 292.47 567.337 292.527 567.761 292.173L566.479 290.638ZM575.409 285.443C575.813 285.068 575.837 284.435 575.462 284.03C575.086 283.625 574.454 283.601 574.049 283.977L575.409 285.443ZM584.714 273.256C584.341 273.663 584.368 274.296 584.775 274.669C585.182 275.042 585.815 275.015 586.188 274.608L584.714 273.256ZM592.865 266.905C593.215 266.478 593.152 265.848 592.725 265.498C592.297 265.148 591.667 265.211 591.317 265.638L592.865 266.905ZM600.384 253.541C600.073 253.997 600.189 254.619 600.645 254.931C601.101 255.243 601.723 255.126 602.035 254.67L600.384 253.541ZM607.546 246.085C607.831 245.611 607.678 244.997 607.204 244.712C606.731 244.428 606.117 244.581 605.832 245.054L607.546 246.085ZM613.035 231.776C612.794 232.272 613 232.871 613.497 233.112C613.994 233.354 614.592 233.147 614.834 232.65L613.035 231.776ZM619.014 223.37C619.226 222.86 618.984 222.274 618.474 222.062C617.964 221.851 617.379 222.092 617.167 222.602L619.014 223.37ZM622.348 208.401C622.181 208.928 622.473 209.49 623 209.656C623.526 209.823 624.088 209.531 624.255 209.004L622.348 208.401ZM627.056 199.176C627.192 198.641 626.868 198.096 626.333 197.96C625.798 197.824 625.254 198.147 625.117 198.683L627.056 199.176ZM628.228 183.919C628.137 184.463 628.504 184.979 629.048 185.071C629.593 185.163 630.109 184.795 630.201 184.251L628.228 183.919ZM631.782 174.051C631.875 173.507 631.509 172.99 630.964 172.897C630.42 172.805 629.903 173.171 629.81 173.715L631.782 174.051ZM633.088 158.693C632.945 159.226 633.261 159.775 633.794 159.918C634.328 160.062 634.876 159.745 635.02 159.212L633.088 158.693ZM637.985 149.51C638.165 148.988 637.887 148.419 637.365 148.239C636.843 148.059 636.274 148.337 636.094 148.859L637.985 149.51ZM641.908 134.559C641.672 135.058 641.885 135.654 642.384 135.89C642.884 136.127 643.48 135.914 643.716 135.414L641.908 134.559ZM648.399 126.429C648.673 125.949 648.507 125.338 648.027 125.064C647.548 124.79 646.937 124.957 646.663 125.437L648.399 126.429ZM655.072 112.518C654.745 112.963 654.84 113.589 655.285 113.917C655.729 114.244 656.355 114.149 656.683 113.704L655.072 112.518ZM663 105.77C663.36 105.351 663.312 104.72 662.893 104.36C662.474 104 661.843 104.048 661.483 104.467L663 105.77ZM672.132 93.3214C671.731 93.7007 671.713 94.3336 672.092 94.7351C672.471 95.1366 673.104 95.1545 673.506 94.7753L672.132 93.3214ZM681.104 88.0402C681.529 87.6868 681.586 87.0562 681.233 86.6319C680.879 86.2075 680.249 86.15 679.824 86.5035L681.104 88.0402ZM692.062 77.1514C691.61 77.4692 691.502 78.0929 691.82 78.5446C692.137 78.9963 692.761 79.1049 693.213 78.7871L692.062 77.1514ZM701.665 73.1313C702.131 72.8344 702.268 72.2162 701.971 71.7505C701.674 71.2848 701.056 71.1479 700.59 71.4447L701.665 73.1313ZM713.794 63.5595C713.312 63.83 713.141 64.4396 713.412 64.9211C713.682 65.4027 714.292 65.5738 714.773 65.3033L713.794 63.5595ZM723.729 60.4474C724.219 60.191 724.407 59.5865 724.151 59.0974C723.894 58.6083 723.29 58.4197 722.801 58.6762L723.729 60.4474ZM736.52 51.7732C736.023 52.0143 735.815 52.6125 736.057 53.1094C736.298 53.6063 736.896 53.8136 737.393 53.5725L736.52 51.7732ZM746.602 49.1824C747.102 48.9477 747.317 48.3522 747.083 47.8523C746.848 47.3523 746.252 47.1373 745.752 47.372L746.602 49.1824ZM759.668 40.9209C759.166 41.152 758.947 41.746 759.178 42.2476C759.409 42.7492 760.003 42.9685 760.505 42.7374L759.668 40.9209ZM769.778 38.4506C770.279 38.2177 770.496 37.6229 770.263 37.1221C770.03 36.6214 769.435 36.4043 768.935 36.6373L769.778 38.4506ZM782.763 30.0619C782.267 30.3047 782.062 30.9037 782.305 31.3997C782.548 31.8958 783.147 32.101 783.643 31.8582L782.763 30.0619ZM792.779 27.2574C793.269 27.0027 793.46 26.399 793.205 25.9089C792.951 25.4189 792.347 25.2281 791.857 25.4828L792.779 27.2574ZM805.222 18.0925C804.747 18.3742 804.59 18.9876 804.872 19.4627C805.154 19.9377 805.767 20.0944 806.242 19.8127L805.222 18.0925ZM814.944 14.347C815.404 14.0403 815.528 13.4193 815.221 12.96C814.914 12.5007 814.293 12.377 813.834 12.6836L814.944 14.347ZM826.029 3.59712C825.606 3.95228 825.551 4.58306 825.906 5.006C826.262 5.42894 826.892 5.4839 827.315 5.12874L826.029 3.59712ZM1.90494 480.426C2.64582 478.85 3.40461 477.301 4.181 475.779L2.39929 474.87C1.61311 476.412 0.844935 477.98 0.095064 479.574L1.90494 480.426ZM11.7032 462.666C13.5587 459.781 15.4882 457.007 17.4886 454.339L15.8884 453.139C13.8591 455.846 11.9023 458.659 10.0212 461.584L11.7032 462.666ZM27.2334 442.741C29.5554 440.273 31.9506 437.914 34.4158 435.66L33.0661 434.184C30.5643 436.472 28.1333 438.866 25.7767 441.371L27.2334 442.741ZM46.1432 426.077C48.8688 424.089 51.6622 422.202 54.5197 420.41L53.4573 418.716C50.5612 420.531 47.729 422.445 44.9645 424.462L46.1432 426.077ZM67.7563 413C70.7583 411.503 73.8177 410.092 76.931 408.762L76.1454 406.923C72.9975 408.268 69.9024 409.695 66.8639 411.21L67.7563 413ZM91.1297 403.364C94.3225 402.288 97.5618 401.283 100.844 400.344L100.294 398.421C96.9835 399.368 93.7147 400.382 90.4912 401.468L91.1297 403.364ZM115.595 396.616C118.864 395.89 122.169 395.22 125.506 394.601L125.141 392.634C121.782 393.258 118.455 393.933 115.162 394.663L115.595 396.616ZM140.546 392.167C143.894 391.7 147.269 391.275 150.667 390.89L150.442 388.902C147.027 389.29 143.635 389.716 140.269 390.186L140.546 392.167ZM165.824 389.427C169.182 389.156 172.559 388.916 175.952 388.705L175.827 386.708C172.423 386.921 169.034 387.162 165.663 387.434L165.824 389.427ZM191.199 387.932C194.579 387.797 197.97 387.685 201.371 387.591L201.316 385.591C197.908 385.686 194.508 385.799 191.12 385.934L191.199 387.932ZM216.632 387.282C220.023 387.237 223.419 387.204 226.818 387.182L226.805 385.182C223.402 385.204 220.001 385.237 216.605 385.283L216.632 387.282ZM242.092 387.139C245.489 387.14 248.886 387.146 252.281 387.154L252.285 385.154C248.89 385.146 245.492 385.14 242.092 385.139L242.092 387.139ZM267.567 387.192C270.966 387.199 274.359 387.203 277.743 387.2L277.742 385.2C274.36 385.203 270.969 385.199 267.571 385.192L267.567 387.192ZM293.043 387.136C296.458 387.107 299.86 387.067 303.248 387.012L303.215 385.012C299.833 385.067 296.436 385.108 293.026 385.136L293.043 387.136ZM318.531 386.644C321.951 386.533 325.351 386.4 328.729 386.242L328.636 384.245C325.268 384.402 321.877 384.534 318.466 384.646L318.531 386.644ZM344.022 385.333C347.439 385.082 350.827 384.798 354.184 384.477L353.994 382.486C350.652 382.805 347.279 383.088 343.876 383.338L344.022 385.333ZM369.39 382.726C372.802 382.261 376.176 381.747 379.507 381.182L379.172 379.21C375.864 379.772 372.512 380.282 369.119 380.744L369.39 382.726ZM394.553 378.184C397.914 377.407 401.221 376.563 404.473 375.647L403.93 373.722C400.711 374.629 397.434 375.465 394.102 376.235L394.553 378.184ZM419.069 370.884C422.287 369.677 425.435 368.38 428.509 366.987L427.684 365.166C424.652 366.539 421.545 367.819 418.366 369.012L419.069 370.884ZM442.149 359.862C445.097 358.093 447.957 356.209 450.723 354.204L449.549 352.585C446.832 354.554 444.02 356.406 441.12 358.147L442.149 359.862ZM462.537 344.32C464.978 341.964 467.32 339.479 469.556 336.858L468.035 335.56C465.841 338.131 463.543 340.569 461.148 342.881L462.537 344.32ZM478.679 324.472C479.602 323.013 480.499 321.521 481.369 319.995L479.631 319.005C478.776 320.504 477.895 321.97 476.989 323.402L478.679 324.472ZM481.369 319.995C482.224 318.496 483.051 317.009 483.851 315.534L482.092 314.581C481.3 316.043 480.479 317.518 479.631 319.005L481.369 319.995ZM490.379 302.454C491.797 299.335 493.085 296.275 494.249 293.275L492.384 292.552C491.235 295.516 489.961 298.54 488.558 301.627L490.379 302.454ZM498.905 279.268C499.804 275.995 500.543 272.801 501.129 269.686L499.164 269.316C498.588 272.375 497.861 275.515 496.976 278.738L498.905 279.268ZM502.807 254.976C502.927 251.581 502.847 248.296 502.578 245.121L500.585 245.29C500.847 248.382 500.926 251.587 500.808 254.906L502.807 254.976ZM499.821 230.534C498.845 227.309 497.646 224.228 496.242 221.293L494.438 222.155C495.798 224.999 496.96 227.985 497.907 231.113L499.821 230.534ZM488.341 208.724C486.275 206.141 484.02 203.715 481.598 201.444L480.23 202.903C482.585 205.112 484.775 207.468 486.779 209.973L488.341 208.724ZM469.856 192.397C467.099 190.65 464.216 189.043 461.224 187.575L460.343 189.37C463.273 190.808 466.093 192.38 468.785 194.087L469.856 192.397ZM447.485 182.025C444.39 181.015 441.22 180.126 437.992 179.359L437.53 181.305C440.707 182.06 443.823 182.934 446.865 183.926L447.485 182.025ZM423.419 176.756C420.18 176.357 416.908 176.07 413.615 175.891L413.506 177.888C416.755 178.064 419.982 178.348 423.175 178.741L423.419 176.756ZM398.841 175.815C395.565 175.957 392.287 176.204 389.022 176.554L389.235 178.543C392.459 178.197 395.694 177.953 398.928 177.813L398.841 175.815ZM374.424 178.837C371.197 179.503 368.002 180.274 364.852 181.149L365.387 183.076C368.493 182.213 371.645 181.453 374.828 180.795L374.424 178.837ZM350.828 185.857C347.751 187.082 344.742 188.416 341.816 189.858L342.701 191.652C345.578 190.234 348.538 188.921 351.568 187.715L350.828 185.857ZM328.992 197.256C326.233 199.11 323.588 201.082 321.075 203.171L322.353 204.709C324.812 202.666 327.402 200.734 330.107 198.916L328.992 197.256ZM310.526 213.574C308.382 216.103 306.407 218.757 304.62 221.533L306.302 222.616C308.04 219.916 309.962 217.332 312.052 214.866L310.526 213.574ZM297.935 234.782C296.783 237.836 295.837 241.003 295.112 244.282L297.065 244.713C297.769 241.529 298.688 238.453 299.807 235.488L297.935 234.782ZM293.418 259.002C293.393 260.661 293.42 262.343 293.501 264.048L295.499 263.952C295.419 262.289 295.393 260.649 295.418 259.033L293.418 259.002ZM293.501 264.048C293.585 265.809 293.726 267.543 293.923 269.25L295.909 269.02C295.718 267.359 295.58 265.669 295.499 263.952L293.501 264.048ZM297.283 284.236C298.405 287.512 299.758 290.66 301.329 293.68L303.103 292.757C301.578 289.825 300.264 286.769 299.176 283.588L297.283 284.236ZM309.875 306.47C312.051 309.077 314.417 311.556 316.959 313.904L318.316 312.435C315.835 310.143 313.529 307.727 311.411 305.188L309.875 306.47ZM329.077 323.295C331.893 325.131 334.842 326.853 337.914 328.462L338.842 326.69C335.824 325.11 332.929 323.419 330.17 321.619L329.077 323.295ZM351.906 334.699C355.046 335.881 358.276 336.965 361.587 337.951L362.158 336.035C358.89 335.061 355.705 333.992 352.611 332.827L351.906 334.699ZM376.441 341.617C379.738 342.274 383.094 342.844 386.502 343.328L386.784 341.348C383.411 340.869 380.091 340.305 376.832 339.656L376.441 341.617ZM401.704 344.893C405.071 345.113 408.475 345.254 411.909 345.317L411.946 343.318C408.542 343.255 405.17 343.115 401.835 342.897L401.704 344.893ZM427.179 345.086C430.548 344.924 433.937 344.69 437.34 344.382L437.16 342.39C433.785 342.695 430.424 342.928 427.084 343.088L427.179 345.086ZM452.502 342.536C455.838 342.026 459.179 341.446 462.521 340.796L462.14 338.833C458.824 339.478 455.509 340.053 452.199 340.559L452.502 342.536ZM477.42 337.431C480.7 336.586 483.973 335.673 487.234 334.691L486.657 332.776C483.422 333.75 480.175 334.656 476.921 335.495L477.42 337.431ZM501.717 329.844C504.896 328.671 508.056 327.43 511.193 326.121L510.423 324.275C507.312 325.573 504.178 326.804 501.024 327.968L501.717 329.844ZM525.094 319.792C528.135 318.287 531.145 316.715 534.12 315.075L533.155 313.323C530.206 314.949 527.222 316.508 524.207 318L525.094 319.792ZM547.239 307.245C550.093 305.404 552.904 303.495 555.668 301.519L554.504 299.892C551.767 301.85 548.982 303.74 546.155 305.564L547.239 307.245ZM567.761 292.173C570.365 289.998 572.916 287.755 575.409 285.443L574.049 283.977C571.582 286.264 569.057 288.485 566.479 290.638L567.761 292.173ZM586.188 274.608C588.48 272.108 590.707 269.541 592.865 266.905L591.317 265.638C589.183 268.244 586.981 270.784 584.714 273.256L586.188 274.608ZM602.035 254.67C603.947 251.875 605.786 249.013 607.546 246.085L605.832 245.054C604.092 247.949 602.275 250.777 600.384 253.541L602.035 254.67ZM614.834 232.65C616.308 229.62 617.702 226.526 619.014 223.37L617.167 222.602C615.87 225.722 614.492 228.78 613.035 231.776L614.834 232.65ZM624.255 209.004C625.272 205.787 626.207 202.511 627.056 199.176L625.117 198.683C624.278 201.981 623.354 205.22 622.348 208.401L624.255 209.004ZM630.201 184.251C630.485 182.561 630.749 180.857 630.99 179.139L629.01 178.861C628.771 180.56 628.51 182.246 628.228 183.919L630.201 184.251ZM630.99 179.139C631.232 177.42 631.496 175.724 631.782 174.051L629.81 173.715C629.522 175.407 629.255 177.122 629.01 178.861L630.99 179.139ZM635.02 159.212C635.917 155.877 636.907 152.644 637.985 149.51L636.094 148.859C635.001 152.037 633.997 155.314 633.088 158.693L635.02 159.212ZM643.716 135.414C645.184 132.314 646.747 129.321 648.399 126.429L646.663 125.437C644.985 128.373 643.398 131.411 641.908 134.559L643.716 135.414ZM656.683 113.704C658.703 110.96 660.812 108.318 663 105.77L661.483 104.467C659.263 107.052 657.123 109.733 655.072 112.518L656.683 113.704ZM673.506 94.7753C675.97 92.4467 678.506 90.2043 681.104 88.0402L679.824 86.5035C677.196 88.6928 674.629 90.9628 672.132 93.3214L673.506 94.7753ZM693.213 78.7871C695.984 76.8378 698.804 74.9552 701.665 73.1313L700.59 71.4447C697.705 73.2837 694.859 75.1833 692.062 77.1514L693.213 78.7871ZM714.773 65.3033C717.734 63.6406 720.722 62.0246 723.729 60.4474L722.801 58.6762C719.778 60.2613 716.773 61.8864 713.794 63.5595L714.773 65.3033ZM737.393 53.5725C740.459 52.0846 743.532 50.624 746.602 49.1824L745.752 47.372C742.676 48.8162 739.595 50.2806 736.52 51.7732L737.393 53.5725ZM760.505 42.7374C763.615 41.3044 766.71 39.8781 769.778 38.4506L768.935 36.6373C765.87 38.063 762.779 39.4877 759.668 40.9209L760.505 42.7374ZM783.643 31.8582C786.735 30.3443 789.784 28.8139 792.779 27.2574L791.857 25.4828C788.879 27.0306 785.844 28.5536 782.763 30.0619L783.643 31.8582ZM806.242 19.8127C809.227 18.0424 812.132 16.2245 814.944 14.347L813.834 12.6836C811.055 14.5391 808.18 16.3381 805.222 18.0925L806.242 19.8127ZM827.315 5.12874C828.635 4.0205 829.923 2.89013 831.177 1.7358L829.823 0.264199C828.592 1.39708 827.327 2.50748 826.029 3.59712L827.315 5.12874Z" fill="white"/>
</svg>
