<svg width="1439" height="699" viewBox="0 0 1439 699" fill="none" xmlns="http://www.w3.org/2000/svg">
<path d="M1 226.601C52.2471 206.258 173.249 177.779 247.28 226.601C339.819 287.627 298.201 405.679 200.766 451.699C103.331 497.72 131.729 621.274 228.185 600.765C324.64 580.256 412.772 433.191 560.149 405.179C707.525 377.167 763.832 291.245 763.832 217.597C763.832 133.56 879.872 -34.014 996.402 7.50422C1112.93 49.0225 1170.22 195.587 976.328 349.655C782.437 503.722 821.117 611.77 888.685 661.292C956.253 710.813 1086.49 713.314 1177.07 649.786C1267.65 586.259 1332.77 464.705 1440 452.7" stroke="white" stroke-opacity="0.2" stroke-width="2" stroke-dasharray="10 15"/>
</svg>
