<svg width="605" height="82" viewBox="0 0 605 82" fill="none" xmlns="http://www.w3.org/2000/svg">
<path d="M605.006 49.6248C605.006 54.1226 604.219 58.3073 602.646 62.1789C601.101 66.0504 598.913 69.4238 596.081 72.299C593.248 75.1457 589.83 77.3804 585.824 79.0031C581.848 80.6257 577.428 81.437 572.565 81.437C567.701 81.437 563.267 80.6257 559.262 79.0031C555.257 77.3804 551.824 75.1457 548.963 72.299C546.131 69.4238 543.928 66.0504 542.354 62.1789C540.81 58.3073 540.037 54.1226 540.037 49.6248C540.037 45.1269 540.81 40.9422 542.354 37.0707C543.928 33.1991 546.131 29.84 548.963 26.9932C551.824 24.1465 555.257 21.9118 559.262 20.2892C563.267 18.6665 567.701 17.8552 572.565 17.8552C577.428 17.8552 581.848 18.6808 585.824 20.3319C589.83 21.9545 593.248 24.1892 596.081 27.0359C598.913 29.8827 601.101 33.2418 602.646 37.1134C604.219 40.9849 605.006 45.1554 605.006 49.6248ZM590.159 49.6248C590.159 46.5503 589.758 43.789 588.957 41.3408C588.156 38.8641 586.997 36.7718 585.481 35.0637C583.994 33.3557 582.163 32.0462 579.988 31.1352C577.814 30.2243 575.34 29.7688 572.565 29.7688C569.761 29.7688 567.258 30.2243 565.055 31.1352C562.881 32.0462 561.036 33.3557 559.519 35.0637C558.032 36.7718 556.887 38.8641 556.086 41.3408C555.285 43.789 554.885 46.5503 554.885 49.6248C554.885 52.7277 555.285 55.5175 556.086 57.9942C556.887 60.4424 558.032 62.5205 559.519 64.2285C561.036 65.9366 562.881 67.246 565.055 68.157C567.258 69.0395 569.761 69.4807 572.565 69.4807C575.34 69.4807 577.814 69.0395 579.988 68.157C582.163 67.246 583.994 65.9366 585.481 64.2285C586.997 62.5205 588.156 60.4424 588.957 57.9942C589.758 55.5175 590.159 52.7277 590.159 49.6248Z" fill="white"/>
<path d="M536.331 49.6248C536.331 54.1226 535.544 58.2788 533.971 62.0935C532.426 65.8796 530.237 69.1676 527.405 71.9574C524.573 74.7187 521.154 76.8823 517.149 78.448C513.172 79.9852 508.752 80.7538 503.889 80.7538H479.601V18.5384H503.889C508.752 18.5384 513.172 19.3213 517.149 20.887C521.154 22.4527 524.573 24.6162 527.405 27.3776C530.237 30.1389 532.426 33.4269 533.971 37.2415C535.544 41.0276 536.331 45.1554 536.331 49.6248ZM521.483 49.6248C521.483 46.5503 521.083 43.7747 520.282 41.2981C519.481 38.8214 518.322 36.7291 516.806 35.021C515.318 33.2845 513.487 31.9608 511.313 31.0498C509.139 30.1104 506.664 29.6407 503.889 29.6407H494.191V69.6515H503.889C506.664 69.6515 509.139 69.1961 511.313 68.2851C513.487 67.3457 515.318 66.022 516.806 64.3139C518.322 62.5774 519.481 60.4708 520.282 57.9942C521.083 55.5175 521.483 52.7277 521.483 49.6248Z" fill="white"/>
<path d="M454.432 14.3656H424.614L422.18 33.7426H445.028L443.258 47.0643H420.521L418.087 66.9367H448.126L446.355 80.7538H398.227L408.184 0.548462H456.203L454.432 14.3656Z" fill="#56BD39"/>
<path d="M293.313 0.548462H307.475C309.024 0.548462 310.259 0.91545 311.181 1.64943C312.14 2.3467 312.712 3.28252 312.896 4.45689L318.539 47.6698C318.687 48.6974 318.797 49.7616 318.871 50.8626C318.945 51.9269 319.019 52.8994 319.092 53.7801C319.166 54.8444 319.203 55.872 319.203 56.8628C319.756 55.138 320.328 53.5232 320.918 52.0186C321.545 50.4772 322.117 49.0276 322.633 47.6698L339.118 4.45689C339.524 3.46602 340.299 2.5669 341.442 1.75952C342.585 0.952149 343.913 0.548462 345.425 0.548462H349.629C351.178 0.548462 352.432 0.91545 353.391 1.64943C354.387 2.3467 354.977 3.28252 355.161 4.45689L361.357 47.6698C361.542 48.9542 361.726 50.3672 361.91 51.9085C362.132 53.4132 362.316 54.9912 362.464 56.6427C362.943 54.9912 363.422 53.4132 363.902 51.9085C364.381 50.4039 364.861 48.9909 365.34 47.6698L381.273 4.45689C381.641 3.42932 382.416 2.5302 383.596 1.75952C384.813 0.952149 386.178 0.548462 387.69 0.548462H401.962L369.102 80.7538H352.727L345.314 30.1094C345.204 29.302 345.075 28.4212 344.927 27.4671C344.779 26.4762 344.65 25.4486 344.54 24.3844C344.134 25.4486 343.728 26.4762 343.323 27.4671C342.954 28.4212 342.622 29.302 342.327 30.1094L322.633 80.7538H306.369L293.313 0.548462Z" fill="#56BD39"/>
<path d="M264.012 18.5384V29.9823H246.418V80.7538H231.913V29.9823H214.319V18.5384H264.012Z" fill="white"/>
<path d="M220.393 80.7538H209.15C207.892 80.7538 206.848 80.4691 206.018 79.8998C205.217 79.302 204.659 78.5476 204.344 77.6366L200.654 66.7906H176.881L173.19 77.6366C172.904 78.4337 172.346 79.1596 171.517 79.8144C170.687 80.4407 169.671 80.7538 168.47 80.7538H157.141L181.343 18.5384H196.191L220.393 80.7538ZM180.228 56.9693H197.307L191.557 39.9316C191.185 38.8499 190.741 37.5831 190.226 36.1313C189.74 34.651 189.254 33.0568 188.767 31.3487C188.309 33.0852 187.837 34.6937 187.351 36.174C186.865 37.6543 186.407 38.9353 185.978 40.017L180.228 56.9693Z" fill="white"/>
<path d="M151.918 80.7538H137.328V54.45H111.924V80.7538H97.3334V18.5384H111.924V44.5434H137.328V18.5384H151.918V80.7538Z" fill="white"/>
<path d="M0.67041 18.5384H12.8575C14.1162 18.5384 15.1604 18.8231 15.9901 19.3925C16.8483 19.9618 17.4062 20.7162 17.6636 21.6556L26.2461 54.1084C26.5321 55.1617 26.8182 56.2861 27.1043 57.4818C27.3904 58.6774 27.605 59.9299 27.748 61.2394C28.0341 59.9015 28.3488 58.6489 28.6921 57.4818C29.0354 56.2861 29.3644 55.1617 29.679 54.1084L39.8063 21.6556C40.0638 20.8585 40.6073 20.1468 41.437 19.5206C42.2952 18.8658 43.3251 18.5384 44.5267 18.5384H48.8179C50.0766 18.5384 51.1065 18.8231 51.9076 19.3925C52.7372 19.9333 53.3093 20.6877 53.624 21.6556L63.6655 54.1084C63.9802 55.1047 64.3092 56.1723 64.6525 57.3109C64.9958 58.4212 65.2962 59.6168 65.5536 60.8978C65.7825 59.6453 66.0114 58.4496 66.2402 57.3109C66.4977 56.1723 66.7552 55.1047 67.0126 54.1084L75.5951 21.6556C75.8239 20.8301 76.3675 20.1041 77.2257 19.4779C78.084 18.8516 79.1139 18.5384 80.3154 18.5384H91.7301L72.4196 80.7538H59.2884L47.5305 42.1948C47.3302 41.597 47.1157 40.9422 46.8868 40.2306C46.6866 39.5189 46.4863 38.7645 46.2861 37.9674C46.0858 38.7645 45.8712 39.5189 45.6424 40.2306C45.4421 40.9422 45.2419 41.597 45.0416 42.1948L33.112 80.7538H19.9809L0.67041 18.5384Z" fill="white"/>
</svg>
