<svg width="1041" height="216" viewBox="0 0 1041 216" fill="none" xmlns="http://www.w3.org/2000/svg">
<path d="M1016.98 155.078C1016.51 155.86 1016.02 156.438 1015.51 156.812C1015.04 157.152 1014.42 157.322 1013.64 157.322C1012.9 157.322 1012.09 157.067 1011.22 156.557C1010.37 156.013 1009.38 155.435 1008.23 154.823C1007.09 154.211 1005.77 153.65 1004.29 153.14C1002.8 152.596 1001.07 152.324 999.079 152.324C995.573 152.324 992.943 153.123 991.19 154.721C989.437 156.285 988.561 158.342 988.561 160.893C988.561 162.525 989.033 163.885 989.977 164.973C990.954 166.027 992.218 166.945 993.769 167.727C995.354 168.51 997.14 169.207 999.129 169.819C1001.12 170.431 1003.16 171.111 1005.25 171.859C1007.34 172.573 1009.38 173.423 1011.37 174.409C1013.36 175.395 1015.13 176.636 1016.68 178.133C1018.26 179.629 1019.53 181.465 1020.47 183.641C1021.45 185.784 1021.94 188.402 1021.94 191.496C1021.94 194.863 1021.35 198.025 1020.17 200.983C1019.02 203.908 1017.35 206.475 1015.16 208.685C1012.97 210.861 1010.25 212.579 1007.02 213.837C1003.82 215.095 1000.17 215.724 996.095 215.724C993.769 215.724 991.443 215.486 989.117 215.01C986.824 214.534 984.599 213.871 982.442 213.021C980.318 212.171 978.312 211.15 976.424 209.96C974.536 208.77 972.884 207.444 971.468 205.982L975.918 198.739C976.289 198.195 976.778 197.753 977.385 197.413C977.992 197.039 978.632 196.852 979.306 196.852C980.217 196.852 981.177 197.192 982.189 197.872C983.2 198.552 984.363 199.3 985.678 200.116C986.993 200.932 988.51 201.68 990.229 202.36C991.982 203.041 994.073 203.381 996.5 203.381C1000.04 203.381 1002.77 202.564 1004.69 200.932C1006.65 199.3 1007.63 196.869 1007.63 193.638C1007.63 191.768 1007.14 190.255 1006.16 189.099C1005.21 187.943 1003.97 186.974 1002.42 186.192C1000.87 185.41 999.096 184.746 997.107 184.202C995.118 183.624 993.078 182.995 990.988 182.315C988.898 181.635 986.858 180.819 984.869 179.867C982.88 178.915 981.11 177.657 979.559 176.092C978.009 174.528 976.744 172.59 975.767 170.278C974.823 167.965 974.351 165.092 974.351 161.658C974.351 158.903 974.89 156.234 975.969 153.65C977.048 151.065 978.632 148.77 980.722 146.764C982.813 144.758 985.375 143.143 988.409 141.918C991.477 140.694 994.983 140.082 998.927 140.082C1003.34 140.082 1007.42 140.779 1011.16 142.173C1014.94 143.534 1018.13 145.438 1020.72 147.886L1016.98 155.078Z" fill="white"/>
<path d="M933.374 155.078C932.902 155.86 932.413 156.438 931.907 156.812C931.435 157.152 930.811 157.322 930.036 157.322C929.294 157.322 928.485 157.067 927.609 156.557C926.766 156.013 925.771 155.435 924.625 154.823C923.479 154.211 922.164 153.65 920.681 153.14C919.197 152.596 917.461 152.324 915.472 152.324C911.966 152.324 909.336 153.123 907.583 154.721C905.83 156.285 904.954 158.342 904.954 160.893C904.954 162.525 905.426 163.885 906.37 164.973C907.347 166.027 908.612 166.945 910.162 167.727C911.747 168.51 913.534 169.207 915.523 169.819C917.512 170.431 919.551 171.111 921.641 171.859C923.732 172.573 925.771 173.423 927.76 174.409C929.749 175.395 931.519 176.636 933.07 178.133C934.655 179.629 935.919 181.465 936.863 183.641C937.84 185.784 938.329 188.402 938.329 191.496C938.329 194.863 937.739 198.025 936.559 200.983C935.413 203.908 933.744 206.475 931.553 208.685C929.362 210.861 926.648 212.579 923.411 213.837C920.209 215.095 916.568 215.724 912.489 215.724C910.162 215.724 907.836 215.486 905.51 215.01C903.217 214.534 900.992 213.871 898.835 213.021C896.711 212.171 894.705 211.15 892.817 209.96C890.929 208.77 889.277 207.444 887.861 205.982L892.311 198.739C892.682 198.195 893.171 197.753 893.778 197.413C894.385 197.039 895.025 196.852 895.7 196.852C896.61 196.852 897.571 197.192 898.582 197.872C899.593 198.552 900.756 199.3 902.071 200.116C903.386 200.932 904.903 201.68 906.622 202.36C908.376 203.041 910.466 203.381 912.893 203.381C916.433 203.381 919.164 202.564 921.085 200.932C923.041 199.3 924.018 196.869 924.018 193.638C924.018 191.768 923.529 190.255 922.552 189.099C921.608 187.943 920.36 186.974 918.81 186.192C917.259 185.41 915.489 184.746 913.5 184.202C911.511 183.624 909.471 182.995 907.381 182.315C905.291 181.635 903.251 180.819 901.262 179.867C899.273 178.915 897.503 177.657 895.952 176.092C894.402 174.528 893.137 172.59 892.16 170.278C891.216 167.965 890.744 165.092 890.744 161.658C890.744 158.903 891.283 156.234 892.362 153.65C893.441 151.065 895.025 148.77 897.115 146.764C899.206 144.758 901.768 143.143 904.802 141.918C907.87 140.694 911.376 140.082 915.32 140.082C919.737 140.082 923.816 140.779 927.558 142.173C931.334 143.534 934.52 145.438 937.116 147.886L933.374 155.078Z" fill="white"/>
<path d="M823.115 152.885V171.91H847.863V183.488H823.115V202.922H854.919V214.908H807.673V140.898H854.919V152.885H823.115Z" fill="white"/>
<path d="M764.739 140.898V214.908H756.839C755.65 214.908 754.647 214.721 753.832 214.347C753.016 213.939 752.218 213.259 751.436 212.307L714.586 165.381C714.688 166.571 714.756 167.745 714.79 168.901C714.858 170.057 714.892 171.128 714.892 172.114V214.908H701.386V140.898H709.439C710.084 140.898 710.628 140.932 711.07 141C711.545 141.034 711.97 141.153 712.344 141.357C712.718 141.527 713.074 141.766 713.414 142.072C713.754 142.378 714.128 142.786 714.535 143.296L751.64 190.425C751.504 189.133 751.402 187.892 751.334 186.702C751.266 185.478 751.232 184.322 751.232 183.233V140.898H764.739Z" fill="white"/>
<path d="M658.079 214.908H643.046V140.898H658.079V214.908Z" fill="white"/>
<path d="M599.144 155.078C598.672 155.86 598.184 156.438 597.678 156.812C597.206 157.152 596.582 157.322 595.807 157.322C595.065 157.322 594.256 157.067 593.38 156.557C592.537 156.013 591.542 155.435 590.396 154.823C589.25 154.211 587.935 153.65 586.452 153.14C584.968 152.596 583.232 152.324 581.243 152.324C577.737 152.324 575.107 153.123 573.354 154.721C571.601 156.285 570.725 158.342 570.725 160.893C570.725 162.525 571.197 163.885 572.141 164.973C573.118 166.027 574.383 166.945 575.933 167.727C577.518 168.51 579.305 169.207 581.294 169.819C583.283 170.431 585.322 171.111 587.412 171.859C589.503 172.573 591.542 173.423 593.531 174.409C595.52 175.395 597.29 176.636 598.841 178.133C600.426 179.629 601.69 181.465 602.634 183.641C603.611 185.784 604.1 188.402 604.1 191.496C604.1 194.863 603.51 198.025 602.33 200.983C601.184 203.908 599.515 206.475 597.324 208.685C595.133 210.861 592.419 212.579 589.182 213.837C585.98 215.095 582.339 215.724 578.259 215.724C575.933 215.724 573.607 215.486 571.281 215.01C568.988 214.534 566.763 213.871 564.606 213.021C562.482 212.171 560.476 211.15 558.588 209.96C556.7 208.77 555.048 207.444 553.632 205.982L558.082 198.739C558.453 198.195 558.942 197.753 559.549 197.413C560.156 197.039 560.796 196.852 561.471 196.852C562.381 196.852 563.342 197.192 564.353 197.872C565.364 198.552 566.527 199.3 567.842 200.116C569.157 200.932 570.674 201.68 572.393 202.36C574.147 203.041 576.237 203.381 578.664 203.381C582.204 203.381 584.935 202.564 586.856 200.932C588.812 199.3 589.789 196.869 589.789 193.638C589.789 191.768 589.3 190.255 588.323 189.099C587.379 187.943 586.131 186.974 584.581 186.192C583.03 185.41 581.26 184.746 579.271 184.202C577.282 183.624 575.242 182.995 573.152 182.315C571.062 181.635 569.022 180.819 567.033 179.867C565.044 178.915 563.274 177.657 561.723 176.092C560.173 174.528 558.908 172.59 557.931 170.278C556.987 167.965 556.515 165.092 556.515 161.658C556.515 158.903 557.054 156.234 558.133 153.65C559.212 151.065 560.796 148.77 562.886 146.764C564.977 144.758 567.539 143.143 570.573 141.918C573.641 140.694 577.147 140.082 581.091 140.082C585.508 140.082 589.587 140.779 593.329 142.173C597.105 143.534 600.291 145.438 602.887 147.886L599.144 155.078Z" fill="white"/>
<path d="M486.285 202.667C488.763 202.667 490.987 202.259 492.956 201.443C494.925 200.592 496.588 199.402 497.946 197.872C499.304 196.342 500.34 194.489 501.052 192.312C501.765 190.136 502.122 187.688 502.122 184.968V140.898H517.399V184.968C517.399 189.456 516.669 193.588 515.209 197.362C513.783 201.102 511.729 204.333 509.047 207.053C506.365 209.773 503.106 211.899 499.27 213.429C495.434 214.959 491.105 215.724 486.285 215.724C481.464 215.724 477.118 214.959 473.248 213.429C469.412 211.899 466.153 209.773 463.471 207.053C460.789 204.333 458.718 201.102 457.258 197.362C455.832 193.588 455.119 189.456 455.119 184.968V140.898H470.396V184.968C470.396 187.688 470.753 190.136 471.466 192.312C472.179 194.489 473.214 196.342 474.572 197.872C475.93 199.402 477.594 200.592 479.563 201.443C481.532 202.259 483.772 202.667 486.285 202.667Z" fill="white"/>
<path d="M389.34 203.177C391.784 203.177 393.786 202.888 395.346 202.31C396.941 201.698 398.214 200.898 399.164 199.912C400.114 198.926 400.776 197.804 401.149 196.546C401.522 195.254 401.709 193.928 401.709 192.567C401.709 191.071 401.488 189.728 401.047 188.538C400.606 187.348 399.894 186.345 398.909 185.529C397.925 184.679 396.636 184.032 395.041 183.59C393.48 183.148 391.546 182.927 389.239 182.927H376.259V203.177H389.34ZM376.259 152.528V172.522H386.286C388.424 172.522 390.324 172.352 391.987 172.012C393.65 171.638 395.041 171.06 396.161 170.278C397.281 169.496 398.129 168.476 398.706 167.218C399.317 165.925 399.622 164.378 399.622 162.576C399.622 160.74 399.368 159.176 398.859 157.883C398.383 156.591 397.637 155.554 396.619 154.772C395.601 153.99 394.312 153.429 392.751 153.089C391.19 152.715 389.34 152.528 387.203 152.528H376.259ZM387.203 140.898C392.157 140.898 396.381 141.374 399.877 142.327C403.406 143.245 406.273 144.571 408.479 146.305C410.718 148.005 412.347 150.079 413.365 152.528C414.383 154.976 414.892 157.713 414.892 160.74C414.892 162.44 414.637 164.072 414.128 165.636C413.653 167.201 412.89 168.68 411.838 170.074C410.82 171.434 409.497 172.675 407.868 173.797C406.239 174.919 404.305 175.872 402.065 176.654C407.087 177.844 410.803 179.782 413.212 182.468C415.621 185.155 416.826 188.64 416.826 192.925C416.826 196.053 416.215 198.96 414.994 201.647C413.806 204.333 412.059 206.662 409.751 208.634C407.444 210.607 404.593 212.154 401.2 213.276C397.841 214.364 393.972 214.908 389.595 214.908H360.989V140.898H387.203Z" fill="white"/>
<path d="M288.747 175.94C291.231 175.94 293.375 175.633 295.178 175.021C296.982 174.375 298.462 173.508 299.619 172.42C300.776 171.298 301.627 169.989 302.171 168.493C302.716 166.996 302.988 165.364 302.988 163.596C302.988 160.094 301.814 157.373 299.466 155.435C297.152 153.497 293.613 152.528 288.849 152.528H280.886V175.94H288.747ZM324.631 214.908H310.798C308.212 214.908 306.34 213.922 305.183 211.95L291.095 189.252C290.516 188.368 289.87 187.722 289.155 187.314C288.474 186.906 287.454 186.702 286.092 186.702H280.886V214.908H265.573V140.898H288.849C294.021 140.898 298.445 141.443 302.12 142.531C305.795 143.585 308.807 145.064 311.155 146.968C313.503 148.872 315.222 151.151 316.311 153.803C317.4 156.421 317.944 159.312 317.944 162.474C317.944 164.922 317.587 167.252 316.872 169.462C316.191 171.638 315.188 173.627 313.86 175.429C312.533 177.232 310.9 178.83 308.96 180.224C307.021 181.618 304.809 182.74 302.324 183.59C303.311 184.134 304.23 184.798 305.081 185.58C305.932 186.328 306.697 187.229 307.378 188.283L324.631 214.908Z" fill="white"/>
<path d="M218.903 202.667C221.381 202.667 223.605 202.259 225.574 201.443C227.543 200.592 229.207 199.402 230.565 197.872C231.923 196.342 232.958 194.489 233.671 192.312C234.384 190.136 234.74 187.688 234.74 184.968V140.898H250.017V184.968C250.017 189.456 249.288 193.588 247.828 197.362C246.402 201.102 244.348 204.333 241.666 207.053C238.984 209.773 235.725 211.899 231.889 213.429C228.052 214.959 223.724 215.724 218.903 215.724C214.082 215.724 209.737 214.959 205.867 213.429C202.03 211.899 198.771 209.773 196.089 207.053C193.407 204.333 191.336 201.102 189.877 197.362C188.451 193.588 187.738 189.456 187.738 184.968V140.898H203.015V184.968C203.015 187.688 203.371 190.136 204.084 192.312C204.797 194.489 205.833 196.342 207.191 197.872C208.549 199.402 210.212 200.592 212.181 201.443C214.15 202.259 216.391 202.667 218.903 202.667Z" fill="white"/>
<path d="M176.981 177.878C176.981 183.284 176.058 188.3 174.212 192.924C172.401 197.549 169.82 201.544 166.47 204.911C163.155 208.277 159.156 210.929 154.473 212.868C149.791 214.772 144.595 215.724 138.887 215.724C133.179 215.724 127.984 214.772 123.301 212.868C118.618 210.929 114.602 208.277 111.252 204.911C107.903 201.544 105.305 197.549 103.459 192.924C101.648 188.3 100.742 183.284 100.742 177.878C100.742 172.471 101.648 167.472 103.459 162.882C105.305 158.257 107.903 154.262 111.252 150.895C114.602 147.529 118.618 144.894 123.301 142.99C127.984 141.051 133.179 140.082 138.887 140.082C144.595 140.082 149.791 141.051 154.473 142.99C159.156 144.894 163.155 147.546 166.47 150.946C169.82 154.313 172.401 158.308 174.212 162.933C176.058 167.523 176.981 172.505 176.981 177.878ZM161.241 177.878C161.241 174.001 160.728 170.533 159.703 167.472C158.677 164.378 157.191 161.76 155.242 159.617C153.328 157.441 150.987 155.792 148.218 154.67C145.484 153.514 142.373 152.936 138.887 152.936C135.401 152.936 132.273 153.514 129.505 154.67C126.736 155.792 124.378 157.441 122.429 159.617C120.515 161.76 119.046 164.378 118.02 167.472C116.995 170.533 116.482 174.001 116.482 177.878C116.482 181.788 116.995 185.29 118.02 188.385C119.046 191.445 120.515 194.047 122.429 196.189C124.378 198.331 126.736 199.98 129.505 201.136C132.273 202.258 135.401 202.82 138.887 202.82C142.373 202.82 145.484 202.258 148.218 201.136C150.987 199.98 153.328 198.331 155.242 196.189C157.191 194.047 158.677 191.445 159.703 188.385C160.728 185.29 161.241 181.788 161.241 177.878Z" fill="white"/>
<path d="M74.7479 186.447V214.908H59.5214V186.447L32.7735 140.898H46.1728C47.4925 140.898 48.5414 141.221 49.3197 141.868C50.1317 142.48 50.7746 143.279 51.2483 144.265L63.328 167.575C64.1401 169.139 64.8676 170.601 65.5105 171.961C66.1872 173.321 66.7794 174.681 67.2869 176.042C67.7606 174.681 68.302 173.321 68.9111 171.961C69.554 170.567 70.2645 169.105 71.0428 167.575L83.021 144.265C83.427 143.449 84.0361 142.684 84.8482 141.97C85.6602 141.255 86.7092 140.898 87.995 140.898H101.496L74.7479 186.447Z" fill="white"/>
<path d="M995.609 41.6917L992.043 71.0711H1025.2L1023 87.8266H989.994L986.276 117.971H1029.15L1027.02 135.339H962.07L975.652 24.3241H1040.46L1038.26 41.6917H995.609Z" fill="#56BD39"/>
<path d="M918.149 79.1813H953.808L948.157 124.628C945.306 126.719 942.38 128.504 939.376 129.983C936.373 131.462 933.191 132.712 929.832 133.732C926.523 134.701 923.036 135.415 919.371 135.874C915.706 136.333 911.786 136.563 907.612 136.563C900.791 136.563 894.58 135.339 888.981 132.891C883.432 130.391 878.672 126.948 874.702 122.562C870.731 118.124 867.652 112.896 865.463 106.877C863.274 100.859 862.179 94.3045 862.179 87.2147C862.179 80.992 862.867 75.1008 864.241 69.5411C865.615 63.9305 867.575 58.7534 870.12 54.0098C872.717 49.2663 875.796 45.0073 879.36 41.2328C882.974 37.4074 886.97 34.1685 891.348 31.5162C895.776 28.8129 900.561 26.7471 905.703 25.319C910.844 23.8398 916.215 23.1002 921.814 23.1002C926.396 23.1002 930.544 23.5337 934.26 24.4009C938.027 25.2169 941.412 26.3391 944.416 27.7672C947.419 29.1444 950.092 30.7766 952.433 32.6638C954.826 34.5 956.938 36.4383 958.771 38.4785L951.593 47.5066C950.422 49.1387 949.023 50.1334 947.394 50.4904C945.765 50.8474 944.085 50.4649 942.354 49.3428C940.725 48.2716 939.147 47.277 937.62 46.3589C936.144 45.3898 934.54 44.5737 932.809 43.9106C931.13 43.2476 929.272 42.7375 927.235 42.3805C925.199 41.9724 922.858 41.7684 920.211 41.7684C915.018 41.7684 910.233 42.8395 905.856 44.9818C901.529 47.124 897.787 50.1589 894.631 54.0863C891.526 57.9628 889.108 62.6553 887.377 68.164C885.646 73.6726 884.781 79.7678 884.781 86.4496C884.781 91.5502 885.417 96.1407 886.69 100.221C888.013 104.251 889.821 107.668 892.111 110.473C894.453 113.279 897.253 115.446 900.511 116.977C903.819 118.456 907.459 119.195 911.43 119.195C915.095 119.195 918.327 118.864 921.127 118.201C923.978 117.487 926.701 116.518 929.297 115.293L931.664 95.4777H920.669C919.294 95.4777 918.251 95.1206 917.538 94.4065C916.825 93.6925 916.545 92.7488 916.698 91.5757L918.149 79.1813Z" fill="#56BD39"/>
<path d="M813.098 77.1153C816.903 77.1153 820.15 76.5543 822.838 75.4321C825.527 74.31 827.734 72.7798 829.459 70.8416C831.183 68.9034 832.452 66.6336 833.263 64.0323C834.075 61.431 834.481 58.6767 834.481 55.7693C834.481 51.2298 833.086 47.6594 830.296 45.0581C827.556 42.4568 823.295 41.1561 817.512 41.1561H807.239L802.825 77.1153H813.098ZM819.566 24.3241C826.11 24.3241 831.691 25.0382 836.307 26.4664C840.974 27.8436 844.779 29.7818 847.721 32.2811C850.714 34.7294 852.896 37.6877 854.266 41.1561C855.686 44.5735 856.396 48.297 856.396 52.3264C856.396 56.5089 855.813 60.4619 854.646 64.1853C853.53 67.9087 851.881 71.3006 849.7 74.361C847.519 77.4214 844.855 80.1247 841.71 82.4709C838.615 84.8172 835.064 86.7044 831.057 88.1326C832.376 88.8977 833.568 89.8413 834.633 90.9634C835.749 92.0856 836.713 93.4372 837.525 95.0184L855.559 135.339H835.698C831.894 135.339 829.408 133.91 828.241 131.054L814.011 96.4721C813.403 95.1459 812.642 94.1768 811.728 93.5648C810.815 92.9527 809.446 92.6466 807.619 92.6466H800.923L795.672 135.339H773.757L787.226 24.3241H819.566Z" fill="#56BD39"/>
<path d="M735.906 93.3352L729.343 58.2176C728.987 56.3814 728.58 54.2136 728.122 51.7144C727.664 49.2151 727.231 46.5117 726.824 43.6044C725.705 46.5117 724.611 49.2151 723.543 51.7144C722.474 54.2136 721.533 56.4069 720.719 58.2941L705.685 93.3352H735.906ZM766.585 135.339H749.49C747.557 135.339 746.056 134.88 744.988 133.961C743.919 133.043 743.181 131.845 742.774 130.366L738.73 108.714H699.122L689.811 130.366C689.15 131.692 688.132 132.865 686.759 133.885C685.385 134.854 683.808 135.339 682.027 135.339H664.627L717.896 24.3241H740.485L766.585 135.339Z" fill="#56BD39"/>
<path d="M671.287 24.3241L657.596 135.339H635.261L641.151 87.291H597.477L591.587 135.339H569.329L583.021 24.3241H605.278L599.389 71.8362H643.063L648.953 24.3241H671.287Z" fill="#56BD39"/>
<path d="M525.039 118.048C527.981 118.048 530.543 117.818 532.724 117.359C534.905 116.9 536.782 116.314 538.354 115.6C539.978 114.885 541.347 114.12 542.463 113.304C543.579 112.488 544.569 111.723 545.431 111.009C546.344 110.295 547.13 109.708 547.79 109.249C548.5 108.79 549.236 108.561 549.996 108.561C550.707 108.561 551.29 108.688 551.747 108.943C552.254 109.198 552.634 109.479 552.888 109.785L560.573 119.272C555.805 124.883 550.149 129.167 543.605 132.125C537.061 135.084 529.604 136.563 521.234 136.563C514.386 136.563 508.273 135.339 502.896 132.891C497.57 130.442 493.08 127.076 489.428 122.791C485.776 118.456 482.986 113.355 481.058 107.49C479.181 101.573 478.243 95.1461 478.243 88.2093C478.243 81.8336 478.927 75.8149 480.297 70.1532C481.717 64.4405 483.696 59.1869 486.232 54.3924C488.769 49.5468 491.812 45.1858 495.363 41.3093C498.965 37.4329 502.947 34.1685 507.309 31.5162C511.723 28.8129 516.44 26.7471 521.462 25.319C526.484 23.8398 531.735 23.1002 537.213 23.1002C541.271 23.1002 544.974 23.4827 548.322 24.2478C551.67 25.0129 554.714 26.084 557.453 27.4612C560.193 28.7874 562.628 30.4196 564.758 32.3578C566.939 34.245 568.867 36.3362 570.541 38.6315L562.856 47.7361C562.298 48.3992 561.638 48.9857 560.877 49.4958C560.167 50.0058 559.229 50.2609 558.062 50.2609C556.895 50.2609 555.805 49.8273 554.79 48.9602C553.776 48.0421 552.533 47.073 551.062 46.0529C549.591 44.9818 547.688 44.0126 545.355 43.1455C543.021 42.2274 539.952 41.7684 536.148 41.7684C531.126 41.7684 526.459 42.814 522.147 44.9052C517.835 46.9965 514.081 49.9803 510.886 53.8568C507.741 57.6822 505.255 62.3493 503.429 67.8579C501.653 73.3666 500.766 79.5383 500.766 86.3731C500.766 91.3717 501.374 95.8347 502.592 99.7622C503.809 103.639 505.509 106.954 507.69 109.708C509.871 112.412 512.433 114.477 515.375 115.906C518.317 117.334 521.538 118.048 525.039 118.048Z" fill="#56BD39"/>
<path d="M429.313 65.1952C433.782 65.1952 437.639 64.6444 440.884 63.5426C444.129 62.3797 446.792 60.8189 448.873 58.8603C450.955 56.8404 452.486 54.484 453.465 51.7909C454.445 49.0977 454.934 46.1598 454.934 42.977C454.934 36.6727 452.822 31.7761 448.598 28.2873C444.435 24.7985 438.068 23.0541 429.497 23.0541H415.171V65.1952H429.313ZM493.872 135.339H468.985C464.332 135.339 460.965 133.564 458.883 130.014L433.537 89.1578C432.497 87.5664 431.333 86.4035 430.048 85.669C428.823 84.9345 426.987 84.5673 424.538 84.5673H415.171V135.339H387.621V2.12125H429.497C438.802 2.12125 446.761 3.10056 453.373 5.0592C459.985 6.95662 465.403 9.61913 469.628 13.0467C473.852 16.4743 476.944 20.5752 478.903 25.3494C480.862 30.0623 481.841 35.2649 481.841 40.9572C481.841 45.3641 481.199 49.5568 479.913 53.5353C478.689 57.4525 476.882 61.0331 474.495 64.2771C472.107 67.5211 469.169 70.3978 465.679 72.9073C462.189 75.4168 458.21 77.4367 453.741 78.9668C455.516 79.9461 457.169 81.1397 458.7 82.5474C460.23 83.894 461.608 85.516 462.832 87.4134L493.872 135.339Z" fill="white"/>
<path d="M330.217 23.6968V57.9422H374.628V78.7832H330.217V113.763H387.291V135.339H302.505V2.12125H387.291V23.6968H330.217Z" fill="white"/>
<path d="M252.74 68.4086C261.376 68.4086 267.685 66.3276 271.666 62.1655C275.709 58.0034 277.73 52.3111 277.73 45.0887C277.73 41.7835 277.209 38.7843 276.168 36.0912C275.188 33.3369 273.657 31.011 271.574 29.1136C269.553 27.155 266.981 25.6554 263.857 24.6149C260.733 23.5744 257.027 23.0541 252.74 23.0541H235.283V68.4086H252.74ZM252.74 2.12125C261.866 2.12125 269.737 3.19238 276.352 5.33463C283.028 7.47688 288.51 10.476 292.798 14.3321C297.085 18.1269 300.24 22.6562 302.261 27.9201C304.344 33.1839 305.385 38.9067 305.385 45.0887C305.385 51.6378 304.313 57.6361 302.169 63.0836C300.025 68.531 296.779 73.2134 292.43 77.1306C288.081 81.0479 282.6 84.1082 275.984 86.3117C269.369 88.4539 261.621 89.5251 252.74 89.5251H235.283V135.339H207.72V2.12125H252.74Z" fill="white"/>
<path d="M145.474 113.304C149.915 113.304 153.901 112.57 157.43 111.101C160.958 109.57 163.94 107.428 166.373 104.674C168.807 101.92 170.663 98.5837 171.941 94.6665C173.218 90.7492 173.857 86.3423 173.857 81.4457V2.12125H201.237V81.4457C201.237 89.5251 199.928 96.9617 197.312 103.756C194.757 110.489 191.076 116.303 186.269 121.2C181.463 126.096 175.622 129.922 168.746 132.676C161.871 135.43 154.114 136.808 145.474 136.808C136.834 136.808 129.046 135.43 122.11 132.676C115.235 129.922 109.394 126.096 104.587 121.2C99.7807 116.303 96.0693 110.489 93.453 103.756C90.8976 96.9617 89.6199 89.5251 89.6199 81.4457V2.12125H116.999V81.4457C116.999 86.3423 117.638 90.7492 118.916 94.6665C120.194 98.5837 122.049 101.92 124.483 104.674C126.917 107.428 129.898 109.57 133.427 111.101C136.956 112.57 140.971 113.304 145.474 113.304Z" fill="white"/>
<path d="M82.2672 27.6447C81.414 29.0525 80.5304 30.093 79.6163 30.7663C78.7632 31.3783 77.6358 31.6844 76.2342 31.6844C74.8936 31.6844 73.4311 31.2253 71.8467 30.3072C70.3232 29.3279 68.5255 28.2874 66.4536 27.1856C64.3817 26.0839 62.0051 25.074 59.3238 24.1559C56.6425 23.1766 53.5041 22.6869 49.9088 22.6869C43.5711 22.6869 38.8179 24.1253 35.6491 27.002C32.4803 29.8176 30.8959 33.5206 30.8959 38.1111C30.8959 41.0491 31.749 43.4974 33.4553 45.456C35.2225 47.3534 37.5077 49.006 40.3109 50.4138C43.175 51.8215 46.4048 53.0763 50.0002 54.178C53.5955 55.2797 57.2823 56.5039 61.0605 57.8504C64.8387 59.1358 68.5255 60.666 72.1209 62.441C75.7163 64.216 78.9156 66.4501 81.7187 69.1432C84.5828 71.8363 86.868 75.1415 88.5743 79.0587C90.3415 82.9148 91.2252 87.6277 91.2252 93.1976C91.2252 99.2571 90.1587 104.949 88.0259 110.274C85.954 115.538 82.9375 120.159 78.9765 124.138C75.0155 128.055 70.1099 131.146 64.2598 133.411C58.4706 135.675 51.8893 136.808 44.5157 136.808C40.3109 136.808 36.1061 136.379 31.9014 135.522C27.7576 134.665 23.7356 133.472 19.8355 131.942C15.9964 130.412 12.3705 128.575 8.95798 126.433C5.54542 124.291 2.55942 121.904 0 119.272L8.0439 106.235C8.71423 105.255 9.59784 104.46 10.6947 103.848C11.7916 103.174 12.9495 102.838 14.1682 102.838C15.8136 102.838 17.5503 103.45 19.3785 104.674C21.2066 105.898 23.309 107.245 25.6856 108.714C28.0622 110.183 30.8045 111.529 33.9124 112.753C37.0812 113.977 40.8594 114.589 45.2469 114.589C51.6455 114.589 56.5815 113.12 60.055 110.183C63.5895 107.245 65.3567 102.868 65.3567 97.0536C65.3567 93.6872 64.4731 90.9635 62.7059 88.8825C60.9996 86.8014 58.7449 85.057 55.9417 83.6493C53.1385 82.2415 49.9392 81.048 46.3438 80.0686C42.7485 79.0281 39.0617 77.8958 35.2835 76.6716C31.5053 75.4475 27.8185 73.9785 24.2231 72.2647C20.6277 70.5509 17.4285 68.2863 14.6253 65.4707C11.8221 62.6552 9.5369 59.1664 7.76968 55.0043C6.0634 50.8422 5.21026 45.6702 5.21026 39.4883C5.21026 34.5305 6.18527 29.7257 8.13531 25.074C10.0853 20.4223 12.9495 16.2908 16.7277 12.6796C20.5059 9.06833 25.1372 6.16099 30.6217 3.95753C36.1671 1.75407 42.5047 0.652344 49.6345 0.652344C57.6175 0.652344 64.9911 1.90709 71.7553 4.41658C78.5804 6.86488 84.3391 10.2925 89.0314 14.6994L82.2672 27.6447Z" fill="white"/>
</svg>
