<svg width="60" height="60" viewBox="0 0 60 60" fill="none" xmlns="http://www.w3.org/2000/svg">
<path d="M60 30C60 46.5685 46.5685 60 30 60C13.4315 60 0 46.5685 0 30C0 13.4315 13.4315 0 30 0C46.5685 0 60 13.4315 60 30Z" fill="white"/>
<path d="M38.9364 32.9389L39.2502 33.2893L40.337 34.5189C40.5067 34.6972 40.6415 34.9138 40.7327 35.1546C40.7952 35.324 40.8299 35.5048 40.8353 35.6883C40.8387 35.8256 40.8105 35.9615 40.7532 36.0827C40.7161 36.1627 40.6707 36.2375 40.6179 36.3054L40.134 36.8529C40.0014 37.0285 39.8156 37.1419 39.6131 37.1708C39.451 37.1824 39.2889 37.1481 39.1415 37.071C39.0043 36.9989 38.8778 36.9035 38.7662 36.788C38.6904 36.7108 38.6158 36.6319 38.5427 36.5513L37.0089 34.7811C36.973 34.7357 36.9293 34.699 36.8806 34.6731C36.8318 34.6473 36.779 34.6328 36.7251 34.6307C36.6713 34.6285 36.6177 34.6387 36.5674 34.6605C36.5172 34.6824 36.4713 34.7155 36.4327 34.7579L36.365 34.8461C36.3194 34.8969 36.283 34.9573 36.2581 35.0241C36.2332 35.0908 36.2201 35.1624 36.2198 35.2349C36.2194 35.3073 36.2316 35.3791 36.2559 35.4462C36.2801 35.5132 36.3158 35.5742 36.3609 35.6256L38.1859 37.6464C38.3351 37.8025 38.4569 37.989 38.5448 38.1963C38.6152 38.3534 38.6544 38.526 38.6596 38.7021C38.6624 38.8393 38.6342 38.9751 38.5776 39.0965C38.5273 39.1996 38.4653 39.2948 38.393 39.3795L37.782 40.0709C37.6534 40.2367 37.4807 40.3508 37.2898 40.3957C37.1396 40.4205 36.9862 40.4005 36.8448 40.3377C36.7061 40.2762 36.5788 40.1857 36.4696 40.0709C36.3788 39.9765 36.2899 39.8798 36.203 39.7809L34.3083 37.5977C34.276 37.5575 34.2368 37.5251 34.1931 37.5026C34.1494 37.4802 34.1021 37.468 34.0542 37.4669C34.0062 37.4658 33.9585 37.4758 33.914 37.4963C33.8696 37.5168 33.8293 37.5474 33.7956 37.5861L33.6193 37.7879C33.5484 37.8709 33.5092 37.9821 33.5099 38.0975C33.5107 38.2128 33.5514 38.3233 33.6234 38.4051L35.3705 40.34C35.5369 40.5175 35.6768 40.7244 35.7847 40.9525C35.859 41.1101 35.901 41.2845 35.9077 41.463C35.9114 41.6018 35.8832 41.7393 35.8257 41.862C35.7747 41.9638 35.7119 42.0574 35.6391 42.1404L35.1552 42.6903C34.6958 43.1512 34.1695 43.0453 33.5762 42.3724L31.7635 40.3679C31.7176 40.3154 31.6553 40.2855 31.59 40.2846C31.5248 40.2838 31.4619 40.312 31.4149 40.3632L31.177 40.5813C31.141 40.6206 31.1126 40.6678 31.0934 40.72C31.0742 40.7723 31.0647 40.8284 31.0654 40.885C31.0662 40.9415 31.0772 40.9973 31.0978 41.0488C31.1185 41.1004 31.1482 41.1466 31.1852 41.1846L32.3746 42.5418C32.5412 42.7092 32.6627 42.9263 32.7252 43.1682C32.7632 43.3409 32.7653 43.5212 32.7314 43.6949C32.6962 43.8714 32.6221 44.035 32.5161 44.1705L32.0321 44.7181C31.8915 44.8809 31.7036 44.9806 31.5031 44.9988C31.3449 45.0062 31.1869 44.9795 31.0376 44.9199C30.8639 44.8431 30.7071 44.7244 30.5783 44.5719L20.7457 33.4494C20.2625 32.9105 19.8334 32.313 19.4662 31.6675C19.1532 31.1203 18.8985 30.5331 18.7075 29.9182C18.5452 29.3874 18.4432 28.8354 18.404 28.2756C18.367 27.783 18.3967 27.287 18.4921 26.8046L16.7594 24.8441L15 22.9695L21.9351 15L25.5646 19.1878L23.8872 21.0833L23.8503 21.1297L23.8257 21.1598C23.4905 21.5768 23.2387 22.0706 23.0875 22.6076C22.9387 23.1387 22.898 23.7011 22.9686 24.2525C23.0717 25.0368 23.4038 25.7596 23.9118 26.3058L24.4081 26.8649L24.4532 26.9137L24.4839 26.9462C24.8658 27.332 25.3259 27.6052 25.8235 27.7416C26.3211 27.878 26.8407 27.8733 27.3363 27.728C27.9284 27.5488 28.465 27.1874 28.8865 26.684L31.1545 24.1156L31.9583 25.0298L31.9665 25.046L38.9323 32.9297L38.9364 32.9389ZM41.6842 26.9763C41.7022 27.2466 41.7022 27.5181 41.6842 27.7883C41.645 28.3403 41.5444 28.8844 41.3848 29.4078C41.1993 30.0087 40.9515 30.5827 40.6466 31.1177C40.5743 31.2466 40.4991 31.3735 40.4211 31.4982L40.3062 31.3729L31.8435 21.7839C31.7532 21.6814 31.6458 21.5999 31.5277 21.5443C31.4096 21.4887 31.2829 21.4599 31.1549 21.4597C31.0269 21.4595 30.9002 21.4878 30.7819 21.5431C30.6636 21.5983 30.5561 21.6794 30.4655 21.7816L27.5106 25.1272C27.3365 25.3464 27.1122 25.507 26.8626 25.5912C26.6798 25.6474 26.4876 25.6522 26.3028 25.6051L26.2926 25.6028C26.0976 25.5502 25.9177 25.4424 25.7697 25.2896L25.2898 24.749C25.0865 24.5401 24.9496 24.2613 24.9002 23.9556C24.8686 23.7299 24.8827 23.4991 24.9412 23.2804L24.9474 23.2642C25.0159 23.028 25.1285 22.8112 25.2775 22.6285L25.2837 22.6215L28.6056 18.863C28.9548 18.4688 29.3723 18.1607 29.8319 17.9581C30.2981 17.7523 30.7862 17.6166 31.2837 17.5544C31.6213 17.5111 31.9609 17.4894 32.3008 17.4895C32.4731 17.4895 32.6454 17.4949 32.8175 17.5057C33.7309 17.5623 34.6392 17.6973 35.5345 17.9094L38.0957 15.0139L45 22.8257L41.7396 26.5123C41.6926 26.6608 41.6744 26.8191 41.6863 26.9763H41.6842Z" fill="#292B3A"/>
</svg>
