<svg width="60" height="60" viewBox="0 0 60 60" fill="none" xmlns="http://www.w3.org/2000/svg">
<path d="M60 30C60 46.5685 46.5685 60 30 60C13.4315 60 0 46.5685 0 30C0 13.4315 13.4315 0 30 0C46.5685 0 60 13.4315 60 30Z" fill="white"/>
<path d="M19.2857 15C16.9188 15 15 16.9188 15 19.2857V40.7143C15 43.0813 16.9188 45 19.2857 45H40.7143C43.0813 45 45 43.0813 45 40.7143V19.2857C45 16.9188 43.0813 15 40.7143 15H19.2857ZM24.6429 24.1071C24.6429 24.9947 23.9233 25.7143 23.0357 25.7143C22.1481 25.7143 21.4286 24.9947 21.4286 24.1071C21.4286 23.2196 22.1481 22.5 23.0357 22.5C23.9233 22.5 24.6429 23.2196 24.6429 24.1071ZM23.0357 32.1429C22.1481 32.1429 21.4286 31.4233 21.4286 30.5357C21.4286 29.6481 22.1481 28.9286 23.0357 28.9286C23.9233 28.9286 24.6429 29.6481 24.6429 30.5357C24.6429 31.4233 23.9233 32.1429 23.0357 32.1429ZM24.6429 36.9643C24.6429 37.8519 23.9233 38.5714 23.0357 38.5714C22.1481 38.5714 21.4286 37.8519 21.4286 36.9643C21.4286 36.0767 22.1481 35.3571 23.0357 35.3571C23.9233 35.3571 24.6429 36.0767 24.6429 36.9643ZM28.9286 23.5714H37.5C38.0916 23.5714 38.5714 24.0511 38.5714 24.6429C38.5714 25.2346 38.0916 25.7143 37.5 25.7143H28.9286C28.3368 25.7143 27.8571 25.2346 27.8571 24.6429C27.8571 24.0511 28.3368 23.5714 28.9286 23.5714ZM27.8571 31.0714C27.8571 30.4798 28.3368 30 28.9286 30H37.5C38.0916 30 38.5714 30.4798 38.5714 31.0714C38.5714 31.6631 38.0916 32.1429 37.5 32.1429H28.9286C28.3368 32.1429 27.8571 31.6631 27.8571 31.0714ZM28.9286 36.4286H37.5C38.0916 36.4286 38.5714 36.9084 38.5714 37.5C38.5714 38.0916 38.0916 38.5714 37.5 38.5714H28.9286C28.3368 38.5714 27.8571 38.0916 27.8571 37.5C27.8571 36.9084 28.3368 36.4286 28.9286 36.4286Z" fill="#292B3A"/>
</svg>
