<svg width="60" height="60" viewBox="0 0 60 60" fill="none" xmlns="http://www.w3.org/2000/svg">
<path d="M60 30C60 46.5685 46.5685 60 30 60C13.4315 60 0 46.5685 0 30C0 13.4315 13.4315 0 30 0C46.5685 0 60 13.4315 60 30Z" fill="white"/>
<path d="M25.5 28.3333C26.6867 28.3333 27.8467 27.9424 28.8334 27.2098C29.8201 26.4773 30.5892 25.4361 31.0433 24.2179C31.4974 22.9997 31.6162 21.6593 31.3847 20.3661C31.1532 19.0729 30.5818 17.885 29.7426 16.9526C28.9035 16.0203 27.8344 15.3853 26.6705 15.1281C25.5067 14.8709 24.3003 15.0029 23.2039 15.5075C22.1075 16.0121 21.1705 16.8665 20.5112 17.9629C19.8519 19.0592 19.5 20.3481 19.5 21.6667C19.5 23.4348 20.1321 25.1305 21.2574 26.3807C22.3826 27.631 23.9087 28.3333 25.5 28.3333Z" fill="#292B3A"/>
<path d="M37.5 31.6668C38.39 31.6668 39.26 31.3735 40.0001 30.8241C40.7401 30.2747 41.3169 29.4938 41.6575 28.5802C41.9981 27.6665 42.0872 26.6612 41.9135 25.6913C41.7399 24.7214 41.3113 23.8305 40.682 23.1312C40.0526 22.432 39.2508 21.9558 38.3779 21.7628C37.505 21.5699 36.6002 21.6689 35.7779 22.0474C34.9557 22.4258 34.2529 23.0667 33.7584 23.8889C33.2639 24.7111 33 25.6778 33 26.6668C33 27.9928 33.4741 29.2646 34.318 30.2023C35.1619 31.14 36.3065 31.6668 37.5 31.6668Z" fill="#292B3A"/>
<path d="M43.5 43.3333C43.8978 43.3333 44.2794 43.1577 44.5607 42.8451C44.842 42.5326 45 42.1086 45 41.6666C44.9988 40.1089 44.6047 38.5828 43.8624 37.2614C43.1201 35.94 42.0594 34.8762 40.8005 34.1907C39.5417 33.5052 38.1351 33.2255 36.7404 33.3833C35.3457 33.541 34.0187 34.13 32.91 35.0833C31.4408 33.4572 29.5711 32.3509 27.5367 31.904C25.5024 31.457 23.3945 31.6894 21.4788 32.5718C19.5632 33.4542 17.9256 34.9472 16.7726 36.8623C15.6196 38.7775 15.0028 41.0291 15 43.3333C15 43.7753 15.158 44.1992 15.4393 44.5118C15.7206 44.8243 16.1022 44.9999 16.5 44.9999H34.5C34.8978 44.9999 35.2794 44.8243 35.5607 44.5118C35.842 44.1992 36 43.7753 36 43.3333" fill="#292B3A"/>
</svg>
