<svg width="66" height="66" viewBox="0 0 66 66" fill="none" xmlns="http://www.w3.org/2000/svg">
<path d="M33 64.5C50.397 64.5 64.5 50.397 64.5 33C64.5 15.603 50.397 1.5 33 1.5C15.603 1.5 1.5 15.603 1.5 33C1.5 50.397 15.603 64.5 33 64.5Z" fill="white" stroke="white" stroke-width="3"/>
<path d="M41.2854 46.9997C35.3773 46.9921 29.7134 44.637 25.5357 40.4511C21.358 36.2651 19.0077 30.5899 19 24.6701C19 22.9011 19.7013 21.2046 20.9497 19.9537C22.1981 18.7029 23.8912 18.0002 25.6567 18.0002C26.0305 17.9973 26.4038 18.0313 26.771 18.1017C27.1259 18.1543 27.4749 18.2417 27.8129 18.3627C28.0506 18.4462 28.2624 18.5905 28.4273 18.7812C28.5923 18.972 28.7047 19.2025 28.7535 19.4501L30.736 28.15C30.7895 28.3862 30.783 28.632 30.7173 28.865C30.6516 29.098 30.5287 29.3108 30.3598 29.484C30.1717 29.687 30.1572 29.7015 28.3772 30.6295C29.8026 33.7627 32.3035 36.2788 35.4246 37.7199C36.3653 35.9219 36.3797 35.9074 36.5823 35.7189C36.7552 35.5497 36.9676 35.4265 37.2001 35.3607C37.4327 35.2948 37.678 35.2884 37.9137 35.3419L46.5963 37.3284C46.8355 37.384 47.0567 37.4997 47.2389 37.6646C47.4212 37.8295 47.5586 38.0381 47.6382 38.2709C47.7604 38.615 47.8524 38.9692 47.9132 39.3294C47.9714 39.6938 48.0004 40.0623 48 40.4313C47.9733 42.1927 47.2523 43.872 45.9943 45.1027C44.7363 46.3333 43.0435 47.0153 41.2854 46.9997Z" fill="#292B3A"/>
</svg>
