<svg width="80" height="81" viewBox="0 0 80 81" fill="none" xmlns="http://www.w3.org/2000/svg">
<path d="M48.5185 39.7855L42.4353 23.2184C42.0584 22.192 41.081 21.5098 39.9878 21.5098C38.8945 21.5098 37.917 22.192 37.5403 23.2184L31.4567 39.7855C31.2431 40.3674 31.2435 41.0066 31.4585 41.5882L37.5421 58.0468C37.9206 59.0704 38.8964 59.7501 39.9876 59.7501C41.0789 59.7501 42.0548 59.0704 42.4331 58.0468L48.5167 41.5882C48.7317 41.0066 48.7324 40.3674 48.5185 39.7855ZM39.9879 49.6224L36.6829 40.681L39.9879 31.6807L43.2929 40.681L39.9879 49.6224Z" fill="white"/>
<path d="M74.4174 20.3059C77.7445 18.5509 79.9657 15.0642 79.9657 11.0814C79.9657 5.33078 75.2873 0.652344 69.5366 0.652344C65.5466 0.652344 62.0545 2.88125 60.3024 6.21812C54.2165 2.61812 47.2562 0.695781 39.9998 0.695781C17.9038 0.695781 0.0214844 18.5764 0.0214844 40.6741C0.0214844 62.77 17.9021 80.6523 39.9998 80.6523C62.0957 80.6523 79.978 62.7719 79.978 40.6741C79.978 33.3917 78.0424 26.4073 74.4174 20.3059ZM69.5366 5.86688C72.412 5.86688 74.7512 8.20609 74.7512 11.0814C74.7512 13.2894 73.3874 15.192 71.419 15.9478C69.5115 13.5336 67.2763 11.2616 64.667 9.20766C65.4205 7.23453 67.3252 5.86688 69.5366 5.86688ZM39.9998 75.4378C20.831 75.4378 5.23602 59.8428 5.23602 40.6741C5.23602 21.5053 20.831 5.91031 39.9998 5.91031C59.1685 5.91031 74.7635 21.5053 74.7635 40.6741C74.7635 59.8428 59.1685 75.4378 39.9998 75.4378Z" fill="white"/>
<path d="M39.9867 11.082C23.7158 11.082 10.4375 24.3205 10.4375 40.6312C10.4375 56.9058 23.6797 70.1805 39.9867 70.1805C56.2933 70.1805 69.5359 56.9066 69.5359 40.6312C69.5359 24.403 56.3339 11.082 39.9867 11.082ZM58.9252 55.8933L57.1247 54.0928C56.1066 53.0747 54.4556 53.0745 53.4375 54.0928C52.4194 55.1111 52.4194 56.7617 53.4375 57.78L55.2367 59.5792C51.0614 62.9466 45.7558 64.9658 39.9867 64.9658C34.2177 64.9658 28.912 62.9466 24.7366 59.5794L26.5358 57.7802C27.5541 56.7619 27.5541 55.1112 26.5358 54.093C25.5177 53.0747 23.8669 53.0747 22.8486 54.093L21.0481 55.8934C17.6752 51.7163 15.652 46.4059 15.652 40.6312C15.652 34.8622 17.6712 29.5566 21.0384 25.3811L22.8486 27.1912C23.8667 28.2095 25.5177 28.2097 26.5358 27.1912C27.5541 26.173 27.5541 24.5223 26.5358 23.5041L24.7244 21.6927C28.9016 18.3198 34.2117 16.2966 39.9866 16.2966C45.7611 16.2966 51.0716 18.3198 55.2487 21.6928L53.4375 23.5041C52.4192 24.5223 52.4192 26.173 53.4375 27.1912C54.4558 28.2094 56.1063 28.2095 57.1247 27.1912L58.9348 25.3811C62.3019 29.5566 64.3212 34.862 64.3212 40.6311C64.3212 46.4058 62.2981 51.7159 58.9252 55.8933Z" fill="white"/>
</svg>
