<svg width="80" height="81" viewBox="0 0 80 81" fill="none" xmlns="http://www.w3.org/2000/svg">
<g clip-path="url(#clip0_274_4635)">
<path d="M40 18.1523H45C45.663 18.1523 46.2989 17.889 46.7678 17.4201C47.2366 16.9513 47.5 16.3154 47.5 15.6523C47.5 14.9893 47.2366 14.3534 46.7678 13.8846C46.2989 13.4157 45.663 13.1523 45 13.1523H42.5C42.5 12.4893 42.2366 11.8534 41.7678 11.3846C41.2989 10.9157 40.663 10.6523 40 10.6523C39.337 10.6523 38.7011 10.9157 38.2322 11.3846C37.7634 11.8534 37.5 12.4893 37.5 13.1523V13.6023C35.8466 14.2023 34.4566 15.3643 33.5731 16.8852C32.6895 18.4061 32.3687 20.1891 32.6665 21.9226C32.9644 23.6561 33.862 25.2298 35.2025 26.3686C36.543 27.5073 38.2411 28.1387 40 28.1523C40.663 28.1523 41.2989 28.4157 41.7678 28.8846C42.2366 29.3534 42.5 29.9893 42.5 30.6523C42.5 31.3154 42.2366 31.9513 41.7678 32.4201C41.2989 32.889 40.663 33.1523 40 33.1523H35C34.337 33.1523 33.7011 33.4157 33.2322 33.8846C32.7634 34.3534 32.5 34.9893 32.5 35.6523C32.5 36.3154 32.7634 36.9513 33.2322 37.4201C33.7011 37.889 34.337 38.1523 35 38.1523H37.5C37.5 38.8154 37.7634 39.4513 38.2322 39.9201C38.7011 40.389 39.337 40.6523 40 40.6523C40.663 40.6523 41.2989 40.389 41.7678 39.9201C42.2366 39.4513 42.5 38.8154 42.5 38.1523V37.7023C44.1534 37.1024 45.5434 35.9404 46.4269 34.4195C47.3105 32.8986 47.6314 31.1156 47.3335 29.3821C47.0356 27.6486 46.138 26.0749 44.7975 24.9361C43.457 23.7974 41.7589 23.166 40 23.1523C39.337 23.1523 38.7011 22.889 38.2322 22.4201C37.7634 21.9513 37.5 21.3154 37.5 20.6523C37.5 19.9893 37.7634 19.3534 38.2322 18.8846C38.7011 18.4157 39.337 18.1523 40 18.1523Z" fill="white"/>
<path d="M77.5 60.6523H70V8.15234C70 6.16322 69.2098 4.25557 67.8033 2.84904C66.3968 1.44252 64.4891 0.652344 62.5 0.652344L7.5 0.652344C5.51088 0.652344 3.60322 1.44252 2.1967 2.84904C0.790176 4.25557 0 6.16322 0 8.15234L0 23.1523C0 23.8154 0.263392 24.4513 0.732233 24.9201C1.20107 25.389 1.83696 25.6523 2.5 25.6523H10V73.1523C10 75.1415 10.7902 77.0491 12.1967 78.4556C13.6032 79.8622 15.5109 80.6523 17.5 80.6523H72.5C74.4891 80.6523 76.3968 79.8622 77.8033 78.4556C79.2098 77.0491 80 75.1415 80 73.1523V63.1523C80 62.4893 79.7366 61.8534 79.2678 61.3846C78.7989 60.9157 78.163 60.6523 77.5 60.6523ZM5 8.15234C5 7.4893 5.26339 6.85342 5.73223 6.38458C6.20107 5.91574 6.83696 5.65234 7.5 5.65234C8.16304 5.65234 8.79893 5.91574 9.26777 6.38458C9.73661 6.85342 10 7.4893 10 8.15234V20.6523H5V8.15234ZM20 63.1523V73.1523C19.9954 73.4849 19.9245 73.8132 19.7914 74.1179C19.6583 74.4227 19.4657 74.6979 19.225 74.9273C19.0034 75.1611 18.7356 75.3462 18.4387 75.471C18.1417 75.5958 17.8221 75.6576 17.5 75.6523C16.837 75.6523 16.2011 75.389 15.7322 74.9201C15.2634 74.4513 15 73.8154 15 73.1523V8.15234C14.9932 7.29949 14.8411 6.45403 14.55 5.65234H62.5C63.163 5.65234 63.7989 5.91574 64.2678 6.38458C64.7366 6.85342 65 7.4893 65 8.15234V60.6523H22.5C21.837 60.6523 21.2011 60.9157 20.7322 61.3846C20.2634 61.8534 20 62.4893 20 63.1523ZM75 73.1523C74.9954 73.4849 74.9244 73.8132 74.7914 74.1179C74.6583 74.4227 74.4658 74.6979 74.225 74.9273C74.0034 75.1611 73.7356 75.3462 73.4387 75.471C73.1417 75.5958 72.8221 75.6576 72.5 75.6523H24.575C24.8575 74.8492 25.0013 74.0038 25 73.1523V65.6523H75V73.1523Z" fill="white"/>
<path d="M42.5 48.1523H22.5C21.837 48.1523 21.2011 48.4157 20.7322 48.8846C20.2634 49.3534 20 49.9893 20 50.6523C20 51.3154 20.2634 51.9513 20.7322 52.4201C21.2011 52.889 21.837 53.1523 22.5 53.1523H42.5C43.163 53.1523 43.7989 52.889 44.2678 52.4201C44.7366 51.9513 45 51.3154 45 50.6523C45 49.9893 44.7366 49.3534 44.2678 48.8846C43.7989 48.4157 43.163 48.1523 42.5 48.1523Z" fill="white"/>
<path d="M57.5 48.1523H52.5C51.837 48.1523 51.2011 48.4157 50.7322 48.8846C50.2634 49.3534 50 49.9893 50 50.6523C50 51.3154 50.2634 51.9513 50.7322 52.4201C51.2011 52.889 51.837 53.1523 52.5 53.1523H57.5C58.163 53.1523 58.7989 52.889 59.2678 52.4201C59.7366 51.9513 60 51.3154 60 50.6523C60 49.9893 59.7366 49.3534 59.2678 48.8846C58.7989 48.4157 58.163 48.1523 57.5 48.1523Z" fill="white"/>
</g>
<defs>
<clipPath id="clip0_274_4635">
<rect width="80" height="80" fill="white" transform="translate(0 0.652344)"/>
</clipPath>
</defs>
</svg>
