<svg width="80" height="81" viewBox="0 0 80 81" fill="none" xmlns="http://www.w3.org/2000/svg">
<path d="M5.67344 28.1523C5.77875 28.2127 9.46328 30.3069 12.5 30.3069C15.5367 30.3069 19.3478 28.2127 19.4569 28.1523H20.8705C23.1581 28.1592 25 30.0053 25 32.2819V48.1523C25 50.9137 22.7614 53.1523 20 53.1523V71.9023C20 73.9734 18.3211 75.6523 16.25 75.6523H8.75C6.67891 75.6523 5 73.9734 5 71.9023V53.1523C2.23859 53.1523 0 50.9137 0 48.1523V32.412C0 30.0639 1.9 28.1595 4.25969 28.1523H5.67344ZM33.1734 28.1523C33.2788 28.2127 36.9634 30.3069 40 30.3069C43.0366 30.3069 46.8478 28.2127 46.9569 28.1523H48.3705C50.6581 28.1592 52.5 30.0053 52.5 32.2819V48.1523C52.5 50.9137 50.2614 53.1523 47.5 53.1523V71.9023C47.5 73.9734 45.8211 75.6523 43.75 75.6523H36.25C34.1789 75.6523 32.5 73.9734 32.5 71.9023V53.1523C29.7386 53.1523 27.5 50.9137 27.5 48.1523V32.412C27.5 30.0639 29.4 28.1595 31.7597 28.1523H33.1734ZM71.25 75.6523H63.75C61.6789 75.6523 60 73.9734 60 71.9023V53.1523C57.2386 53.1523 55 50.9137 55 48.1523V32.412C55 30.0595 56.9072 28.1523 59.2597 28.1523H60.6734C60.6734 28.1523 64.42 30.3069 67.5 30.3069C70.58 30.3069 74.4569 28.1523 74.4569 28.1523H75.8705C78.1513 28.1523 80 30.0011 80 32.2819V48.1523C80 50.9137 77.7614 53.1523 75 53.1523V71.9023C75 73.9683 73.3295 75.6439 71.25 75.6523ZM12.5 25.6523C18.0228 25.6523 22.5 21.1752 22.5 15.6523C22.5 10.1295 18.0228 5.65234 12.5 5.65234C6.97719 5.65234 2.5 10.1295 2.5 15.6523C2.5 21.1752 6.97719 25.6523 12.5 25.6523ZM40 25.6523C45.5228 25.6523 50 21.1752 50 15.6523C50 10.1295 45.5228 5.65234 40 5.65234C34.4772 5.65234 30 10.1295 30 15.6523C30 21.1752 34.4772 25.6523 40 25.6523ZM77.5 15.6523C77.5 21.1752 73.0228 25.6523 67.5 25.6523C61.9772 25.6523 57.5 21.1752 57.5 15.6523C57.5 10.1295 61.9772 5.65234 67.5 5.65234C73.0228 5.65234 77.5 10.1295 77.5 15.6523Z" fill="white"/>
</svg>
