<svg width="74" height="81" viewBox="0 0 74 81" fill="none" xmlns="http://www.w3.org/2000/svg">
<path d="M62.8137 13.5761L51.742 2.50444C49.2725 0.0349778 45.2658 0.0349778 42.7963 2.50444L31.7246 13.5761H62.8137Z" fill="white"/>
<path d="M36.3209 3.20703H20.4411C16.9413 3.20703 14.0957 6.05264 14.0957 9.53606V13.5755H25.936L36.3209 3.20703Z" fill="white"/>
<path d="M37.8418 78.4193H53.1983C56.5672 78.4193 59.3147 75.6718 59.3147 72.3029V68.1816H48.0794L37.8418 78.4193Z" fill="white"/>
<path d="M11.0371 68.166L21.7327 78.8616C24.1204 81.2493 27.9963 81.2493 30.384 78.8616L41.0795 68.166H11.0371Z" fill="white"/>
<path d="M37.4327 27.002C29.779 27.002 23.5645 33.2165 23.5645 40.8702C23.5645 48.5239 29.779 54.7385 37.4327 54.7385C45.0864 54.7385 51.3009 48.5239 51.3009 40.8702C51.3009 33.2165 45.0864 27.002 37.4327 27.002ZM41.4067 46.3488C40.8016 47.0847 40.0166 47.5754 39.1008 47.837C38.692 47.9515 38.5284 48.1641 38.5448 48.573C38.5611 48.9818 38.5448 49.3907 38.5448 49.7995C38.5448 50.1593 38.3649 50.3556 38.0051 50.3719C37.5635 50.3883 37.122 50.3883 36.6804 50.3719C36.2879 50.3719 36.108 50.143 36.108 49.7668C36.108 49.4724 36.108 49.1617 36.0917 48.8673C36.0917 48.2132 36.059 48.1805 35.4212 48.0823C34.6034 47.9515 33.8184 47.7716 33.0662 47.4118C32.4774 47.1338 32.4284 46.9866 32.5919 46.3652C32.7227 45.9073 32.8372 45.4493 32.9844 45.0078C33.1479 44.4845 33.2951 44.419 33.7694 44.6643C34.5871 45.0896 35.4702 45.3349 36.386 45.4493C36.9748 45.5311 37.5472 45.4657 38.1032 45.2204C39.1172 44.7788 39.2807 43.585 38.4139 42.8818C38.1196 42.6364 37.7925 42.4565 37.4327 42.3094C36.5332 41.9169 35.601 41.6225 34.767 41.1155C33.3932 40.2978 32.5265 39.1694 32.6246 37.5013C32.7391 35.6205 33.8021 34.4431 35.5356 33.8052C36.2552 33.5436 36.2552 33.5599 36.2552 32.8076C36.2552 32.5623 36.2552 32.3007 36.2552 32.0554C36.2716 31.4993 36.3697 31.4012 36.9257 31.3848C37.1056 31.3848 37.2692 31.3848 37.4491 31.3848C38.6429 31.3848 38.6429 31.3848 38.6429 32.5787C38.6429 33.4291 38.6429 33.4291 39.4933 33.5599C40.1311 33.6581 40.7526 33.8543 41.3413 34.116C41.6684 34.2632 41.7992 34.4921 41.6848 34.8355C41.5376 35.3425 41.3904 35.8659 41.2268 36.3728C41.0633 36.8471 40.9161 36.9289 40.4582 36.6999C39.526 36.242 38.5448 36.0621 37.5308 36.1112C37.2528 36.1275 36.9911 36.1602 36.7458 36.2747C35.8627 36.6672 35.7155 37.6485 36.4678 38.2536C36.844 38.5643 37.2855 38.7769 37.7434 38.9731C38.5284 39.3002 39.3134 39.6109 40.0657 40.0198C42.4369 41.3281 43.091 44.3046 41.4067 46.3488Z" fill="white"/>
<path d="M57.5971 45.4169C59.7197 45.4169 61.4403 43.6962 61.4403 41.5737C61.4403 39.4511 59.7197 37.7305 57.5971 37.7305C55.4746 37.7305 53.7539 39.4511 53.7539 41.5737C53.7539 43.6962 55.4746 45.4169 57.5971 45.4169Z" fill="white"/>
<path d="M17.2514 45.4169C19.374 45.4169 21.0946 43.6962 21.0946 41.5737C21.0946 39.4511 19.374 37.7305 17.2514 37.7305C15.1289 37.7305 13.4082 39.4511 13.4082 41.5737C13.4082 43.6962 15.1289 45.4169 17.2514 45.4169Z" fill="white"/>
<path d="M67.1809 18.2539H6.80168C3.31826 18.2539 0.472656 21.0995 0.472656 24.5829V57.1602C0.472656 60.6436 3.31826 63.4893 6.80168 63.4893H67.1972C70.6807 63.4893 73.5263 60.6436 73.5263 57.1602V24.5829C73.5097 21.0995 70.6807 18.2539 67.1809 18.2539ZM68.1129 51.0929C67.6059 50.962 67.0826 50.8966 66.5266 50.8966C62.9941 50.8966 60.1158 53.7586 60.1158 57.3074C60.1158 57.5691 60.1321 57.8471 60.1648 58.1088H13.2941C13.3595 57.7326 13.4086 57.3401 13.4086 56.9313C13.4086 53.3988 10.5466 50.5205 6.99777 50.5205C6.60527 50.5205 6.24548 50.5532 5.86933 50.6186V31.1573C6.22912 31.2227 6.60527 31.2554 6.99777 31.2554C10.5302 31.2554 13.4086 28.3934 13.4086 24.8446C13.4086 24.4357 13.3758 24.0432 13.2941 23.6671H60.312C60.1812 24.1741 60.1158 24.6974 60.1158 25.2371C60.1158 28.7696 62.9777 31.6479 66.5266 31.6479C67.0662 31.6479 67.6059 31.5825 68.1129 31.4516V51.0929Z" fill="white"/>
</svg>
