<svg width="80" height="81" viewBox="0 0 80 81" fill="none" xmlns="http://www.w3.org/2000/svg">
<g clip-path="url(#clip0_274_4493)">
<path d="M66.6667 80.6523H60V71.319L52 75.9857L48.6667 70.319L56.6667 65.6523L48.6667 60.9857L52 55.319L60 59.9857V50.6523H66.6667V59.9857L74.6667 55.319L78 60.9857L70 65.6523L78 70.319L74.6667 75.9857L66.6667 71.319V80.6523ZM43.3333 67.319H0V7.31901H13.3333V0.652344H20V7.31901H40V0.652344H46.6667V7.31901H60V47.319H53.3333V13.9857H6.66667V20.6523H53.3333V27.319H6.66667V60.6523H43.3333V67.319ZM46.6667 53.9857H26.6667V47.319H46.6667V53.9857ZM20 53.9857H13.3333V47.319H20V53.9857ZM46.6667 40.6523H26.6667V33.9857H46.6667V40.6523ZM20 40.6523H13.3333V33.9857H20V40.6523Z" fill="white"/>
</g>
<defs>
<clipPath id="clip0_274_4493">
<rect width="80" height="80" fill="white" transform="translate(0 0.652344)"/>
</clipPath>
</defs>
</svg>
