<svg width="80" height="81" viewBox="0 0 80 81" fill="none" xmlns="http://www.w3.org/2000/svg">
<g clip-path="url(#clip0_274_4511)">
<path d="M78.921 64.2662L46.9952 8.96664C45.5568 6.47539 42.8763 4.92773 39.9993 4.92773C37.1224 4.92773 34.4443 6.47539 33.007 8.96664L1.07883 64.2637C-0.359609 66.7549 -0.359609 69.849 1.07883 72.3402C2.51727 74.8315 5.19664 76.378 8.07227 76.378H71.9276C74.8034 76.378 77.4851 74.8316 78.9212 72.3402C80.3596 69.849 80.3596 66.7549 78.921 64.2662ZM40.0006 67.2837C37.2399 67.2837 34.9985 65.0446 34.9985 62.283C34.9985 59.5224 37.2399 57.2835 40.0006 57.2835C42.761 57.2835 45.0001 59.5224 45.0001 62.283C45.0001 65.0448 42.761 67.2837 40.0006 67.2837ZM43.0812 51.2796C43.0812 52.9812 41.7009 54.3591 40.0006 54.3591C38.2977 54.3591 36.9198 52.9813 36.9198 51.2796L34.9985 28.6665C34.9985 25.9046 37.2399 23.6657 40.0006 23.6657C42.761 23.6657 45.0001 25.9048 45.0001 28.6665L43.0812 51.2796Z" fill="white"/>
</g>
<defs>
<clipPath id="clip0_274_4511">
<rect width="80" height="80" fill="white" transform="translate(0 0.652344)"/>
</clipPath>
</defs>
</svg>
