<svg width="30" height="25" viewBox="0 0 30 25" fill="none" xmlns="http://www.w3.org/2000/svg">
<path d="M29.4316 8.28313C29.6602 8.09087 30 8.27073 30 8.57463V21.2578C30 22.9013 28.7402 24.2348 27.1875 24.2348H2.8125C1.25977 24.2348 0 22.9013 0 21.2578V8.58083C0 8.27073 0.333984 8.09707 0.568359 8.28933C1.88086 9.36849 3.62109 10.7391 9.59766 15.3348C10.834 16.29 12.9199 18.2994 15 18.287C17.0918 18.3056 19.2188 16.2527 20.4082 15.3348C26.3848 10.7391 28.1191 9.36228 29.4316 8.28313ZM15 16.2962C16.3594 16.321 18.3164 14.4852 19.3008 13.7285C27.0762 7.75596 27.668 7.23498 29.4609 5.7465C29.8008 5.4674 30 5.03326 30 4.57431V3.39592C30 1.75238 28.7402 0.418945 27.1875 0.418945H2.8125C1.25977 0.418945 0 1.75238 0 3.39592V4.57431C0 5.03326 0.199219 5.4612 0.539062 5.7465C2.33203 7.22878 2.92383 7.75596 10.6992 13.7285C11.6836 14.4852 13.6406 16.321 15 16.2962Z" fill="#292B3A"/>
</svg>
