<svg width="30" height="42" viewBox="0 0 30 42" fill="none" xmlns="http://www.w3.org/2000/svg">
<path d="M13.4584 40.5832C2.10703 23.5433 0 21.7945 0 15.5321C0 6.95391 6.7157 0 15 0C23.2843 0 30 6.95391 30 15.5321C30 21.7945 27.893 23.5433 16.5416 40.5832C15.7966 41.6974 14.2033 41.6973 13.4584 40.5832ZM15 22.0037C18.4518 22.0037 21.25 19.1063 21.25 15.5321C21.25 11.9578 18.4518 9.06037 15 9.06037C11.5482 9.06037 8.75 11.9578 8.75 15.5321C8.75 19.1063 11.5482 22.0037 15 22.0037Z" fill="#292B3A"/>
</svg>
