<svg width="30" height="31" viewBox="0 0 30 31" fill="none" xmlns="http://www.w3.org/2000/svg">
<path d="M23.0539 30.2346C16.942 30.2267 11.0828 27.7904 6.76108 23.4601C2.43935 19.1298 0.00792203 13.2589 0 7.13493C0 5.30497 0.725511 3.54995 2.01693 2.25597C3.30835 0.961986 5.05989 0.235035 6.88623 0.235035C7.27296 0.232083 7.65905 0.267252 8.03892 0.340033C8.40615 0.394483 8.76716 0.484915 9.11677 0.610029C9.36265 0.696472 9.58175 0.845726 9.75241 1.04303C9.92307 1.24034 10.0394 1.47886 10.0898 1.73501L12.1407 10.7349C12.196 10.9792 12.1893 11.2334 12.1214 11.4745C12.0534 11.7155 11.9262 11.9357 11.7515 12.1149C11.5569 12.3249 11.5419 12.3399 9.7006 13.2998C11.1751 16.5411 13.7623 19.144 16.991 20.6347C17.9641 18.7748 17.979 18.7598 18.1886 18.5648C18.3674 18.3897 18.5871 18.2623 18.8277 18.1942C19.0683 18.1261 19.3221 18.1194 19.5659 18.1748L28.5479 20.2297C28.7954 20.2873 29.0241 20.407 29.2127 20.5775C29.4013 20.7481 29.5434 20.9639 29.6257 21.2047C29.7521 21.5608 29.8473 21.9271 29.9102 22.2997C29.9704 22.6767 30.0005 23.0579 30 23.4397C29.9724 25.2618 29.2265 26.999 27.9251 28.2721C26.6237 29.5451 24.8726 30.2507 23.0539 30.2346Z" fill="#292B3A"/>
</svg>
